<?xml version="1.0" encoding="UTF-8"?>
<svg id="Layer_1" data-name="Layer 1" xmlns="http://www.w3.org/2000/svg" version="1.1" viewBox="0 0 50 50">
  <defs>
    <style>
      .cls-1 {
        fill: #222221;
        stroke-width: 0px;
      }
    </style>
  </defs>
  <path class="cls-1" d="M18.3,32.2h-9.5l-1.9,5H2.1L11.9,12.8h3.3l9.7,24.4h-4.8l-1.9-5ZM16.8,28.1l-3.3-8.9-3.3,8.9h6.6Z"/>
  <path class="cls-1" d="M25.2,25c0-7.8,4.6-12.7,11.8-12.7s9,2.5,10.8,7.1l-4,1.6c-1.1-3-3.5-4.5-6.8-4.5-4.7,0-7.4,3.1-7.4,8.5s2.8,8.6,7.4,8.6,5.7-1.6,6.8-4.6l4.1,1.5c-1.7,4.7-5.7,7.3-10.9,7.3s-11.8-4.9-11.8-12.7Z"/>
</svg>