<?xml version="1.0" encoding="UTF-8"?>
<svg id="Calque_2" data-name="Calque 2" xmlns="http://www.w3.org/2000/svg" xmlns:xlink="http://www.w3.org/1999/xlink" viewBox="0 0 297.63 113.4">
  <defs>
    <style>
      .cls-1 {
        clip-path: url(#clippath);
      }

      .cls-2, .cls-3 {
        stroke-width: 0px;
      }

      .cls-2, .cls-4 {
        fill: none;
      }

      .cls-3 {
        fill: #fff;
      }

      .cls-4 {
        stroke: #fff;
        stroke-miterlimit: 10;
        stroke-width: .5px;
      }
    </style>
    <clipPath id="clippath">
      <path class="cls-2" d="M33.4.02c-8.9.32-16.29,3.58-21.97,9.7C3.61,18.14-.53,31.72.05,46.98c.9,23.21,14.03,45.65,33.45,57.18,9.51,5.65,20.76,8.82,32.51,9.18l1.56.05h0s.03,0,.03,0h.03s0,0,0,0l1.56-.05c11.75-.36,23-3.54,32.51-9.18,19.42-11.53,32.55-33.98,33.45-57.18.59-15.26-3.56-28.84-11.37-37.26C118.11,3.6,110.72.34,101.82.02c-15.35-.54-30.44,11.05-34.2,26.41l-.03.25v-.25C63.93,11.45,49.51,0,34.52,0c-.37,0-.74,0-1.12.02"/>
    </clipPath>
  </defs>
  <g id="Calque_1-2" data-name="Calque 1">
    <g>
      <g>
        <path class="cls-3" d="M165.09,35.53h-7.63l-1.48,4.03h-3.8l7.8-19.49h2.63l7.77,19.49h-3.8l-1.48-4.03ZM163.92,32.31l-2.63-7.1-2.63,7.1h5.26Z"/>
        <path class="cls-3" d="M171.97,32.51v-12.44h3.5v12.05c0,3.3,1.06,4.47,3.94,4.47s3.97-1.2,3.97-4.47v-12.05h3.5v12.3c0,5.06-2.54,7.61-7.47,7.61s-7.44-2.49-7.44-7.47Z"/>
        <path class="cls-3" d="M202,39.55l-4.67-8.08h-2.46v8.08h-3.47v-19.49h6.38c4.64,0,6.63,2.13,6.63,5.62,0,2.8-1.29,4.59-3.61,5.37l5.26,8.5h-4.05ZM197.41,28.26c2.26,0,3.5-.61,3.5-2.52s-1.23-2.46-3.5-2.46h-2.54v4.98h2.54Z"/>
        <path class="cls-3" d="M207.28,29.82c0-6.12,3.78-10.18,9.31-10.18s9.31,4.05,9.31,10.18-3.78,10.15-9.31,10.15-9.31-4.05-9.31-10.15ZM222.41,29.82c0-4.22-2.27-6.85-5.82-6.85s-5.82,2.6-5.82,6.85,2.26,6.82,5.82,6.82,5.82-2.63,5.82-6.82Z"/>
        <path class="cls-3" d="M240.05,39.55l-4.67-8.08h-2.46v8.08h-3.47v-19.49h6.38c4.64,0,6.63,2.13,6.63,5.62,0,2.8-1.29,4.59-3.61,5.37l5.26,8.5h-4.05ZM235.46,28.26c2.26,0,3.5-.61,3.5-2.52s-1.23-2.46-3.5-2.46h-2.54v4.98h2.54Z"/>
        <path class="cls-3" d="M246.84,20.06h12.97v3.22h-9.48v4.64h8.81v3.22h-8.81v5.2h9.48v3.22h-12.97v-19.49Z"/>
        <path class="cls-3" d="M152.41,55.68c0-6.24,3.69-10.18,9.45-10.18,4.11,0,7.21,1.99,8.64,5.7l-3.22,1.26c-.87-2.43-2.77-3.64-5.43-3.64-3.78,0-5.96,2.46-5.96,6.82s2.21,6.88,5.96,6.88c2.68,0,4.59-1.26,5.43-3.72l3.27,1.23c-1.4,3.78-4.53,5.82-8.7,5.82-5.76,0-9.45-3.94-9.45-10.18Z"/>
        <path class="cls-3" d="M183.39,61.42h-7.63l-1.48,4.03h-3.8l7.8-19.49h2.63l7.77,19.49h-3.8l-1.48-4.03ZM182.22,58.2l-2.63-7.1-2.63,7.1h5.26Z"/>
        <path class="cls-3" d="M189.26,59.93l3.47-.87c.25,2.32,1.79,3.64,4.05,3.64,1.96,0,3.22-.98,3.22-2.63,0-1.34-1.01-2.18-3.89-3.33-4.08-1.59-5.54-3.08-5.54-5.9,0-3.16,2.43-5.31,6.07-5.31,2.63,0,4.7,1.2,5.93,3.55l-2.91,1.79c-.67-1.45-1.82-2.24-3.13-2.24-1.4,0-2.46.92-2.46,2.13,0,1.29.95,2.01,3.89,3.16,4.17,1.59,5.54,3.08,5.54,5.84,0,3.64-2.77,6.04-6.77,6.04s-6.91-2.32-7.47-5.87Z"/>
        <path class="cls-3" d="M216.91,61.42h-7.63l-1.48,4.03h-3.8l7.8-19.49h2.63l7.77,19.49h-3.8l-1.48-4.03ZM215.74,58.2l-2.63-7.1-2.63,7.1h5.26Z"/>
        <path class="cls-3" d="M240.06,45.95v19.49h-3.64l-8.17-13.48v13.48h-3.5v-19.49h3.61l8.19,13.42v-13.42h3.5Z"/>
        <path class="cls-3" d="M243.61,55.71c0-6.12,3.78-10.18,9.31-10.18s9.31,4.05,9.31,10.18-3.78,10.15-9.31,10.15-9.31-4.05-9.31-10.15ZM258.74,55.71c0-4.22-2.27-6.85-5.82-6.85s-5.82,2.6-5.82,6.85,2.26,6.82,5.82,6.82,5.82-2.63,5.82-6.82Z"/>
        <path class="cls-3" d="M280.94,45.95l-7.77,19.49h-2.63l-7.8-19.49h3.86l5.26,13.79,5.23-13.79h3.86Z"/>
        <path class="cls-3" d="M292.35,61.42h-7.63l-1.48,4.03h-3.8l7.8-19.49h2.63l7.77,19.49h-3.8l-1.48-4.03ZM291.17,58.2l-2.63-7.1-2.63,7.1h5.26Z"/>
      </g>
      <g>
        <path class="cls-3" d="M165.69,82.49h.48v5.28h-.48c-.13-.6-.37-1.13-.72-1.59-1.33,1.5-3.02,2.25-5.08,2.25-2.18,0-3.96-.69-5.35-2.07-1.38-1.38-2.07-3.2-2.07-5.47,0-1.49.32-2.89.96-4.21.64-1.32,1.53-2.29,2.67-2.93,1.14-.64,2.4-.96,3.76-.96,1.13,0,2.15.23,3.06.7s1.6.98,2.05,1.54c.32-.63.51-1.28.58-1.96h.49l.13,5.72h-.48c-.33-2.03-1.01-3.44-2.04-4.24-1.03-.79-2.19-1.19-3.48-1.19-1.58,0-2.83.64-3.76,1.92-.93,1.28-1.4,3.12-1.4,5.51,0,2.26.51,4,1.52,5.2,1.02,1.21,2.28,1.81,3.79,1.81.81,0,1.64-.2,2.48-.59.85-.39,1.51-1.06,2.01-2,.49-.94.78-1.84.87-2.72Z"/>
        <path class="cls-3" d="M171.38,80.54c.44-.62.94-1.09,1.5-1.4.55-.31,1.16-.47,1.82-.47.75,0,1.37.16,1.86.47.49.31.81.7.96,1.15s.22,1.2.22,2.22v2.51c0,1.07.02,1.72.06,1.95.04.23.16.4.36.51.2.11.57.16,1.11.16v.51h-4.7v-.51h.21c.54,0,.89-.08,1.05-.23.16-.16.25-.34.28-.55.03-.21.04-.82.04-1.83v-2.74c0-.76-.04-1.32-.13-1.68s-.3-.66-.63-.9c-.33-.24-.74-.36-1.24-.36-.58,0-1.1.17-1.56.51s-.86.84-1.21,1.52v3.65c0,1.02.02,1.65.05,1.89.03.24.15.42.34.54.19.12.55.18,1.06.18v.51h-4.63v-.51h.23c.53,0,.88-.08,1.04-.23.16-.15.25-.33.28-.55.03-.21.04-.82.04-1.84v-9.08c0-.92-.09-1.5-.26-1.75-.17-.24-.59-.37-1.25-.37v-.51c1.15,0,2.11-.16,2.87-.47h.23v7.69Z"/>
        <path class="cls-3" d="M189.8,86.48h.41c-.07,1.27-.69,1.9-1.87,1.9-.5,0-.9-.13-1.2-.4-.29-.27-.48-.66-.57-1.19-.74.53-1.42.92-2.03,1.19-.61.27-1.16.4-1.64.4-.62,0-1.15-.18-1.59-.53-.45-.36-.67-.83-.67-1.41,0-.76.37-1.43,1.12-2,.75-.57,1.77-1.13,3.09-1.67l1.72-.7v-.45c0-.63-.04-1.09-.12-1.37-.08-.28-.29-.53-.63-.76-.34-.22-.79-.33-1.35-.33-1.11,0-1.73.37-1.86,1.11-.12.76-.43,1.13-.93,1.13-.45,0-.68-.22-.68-.65s.3-.88.9-1.36,1.53-.73,2.8-.73c.94,0,1.67.15,2.19.44.52.3.86.63,1.03,1.01.17.38.25.96.25,1.74v3.68c0,.86.04,1.41.13,1.66.09.24.28.37.58.37.49,0,.79-.36.91-1.09ZM186.58,82.59l-1.21.49c-1.91.78-2.87,1.76-2.87,2.94,0,.47.12.84.37,1.13.24.29.56.43.96.43.35,0,.75-.11,1.21-.34.46-.23.98-.57,1.55-1.03v-3.6Z"/>
        <path class="cls-3" d="M193.64,78.67h.11c.21.5.32,1.13.32,1.91.5-.64,1.03-1.12,1.61-1.43s1.19-.48,1.85-.48c.75,0,1.36.17,1.82.51.47.34.79.85.98,1.53.56-.68,1.14-1.19,1.74-1.53s1.2-.51,1.81-.51c.7,0,1.3.16,1.79.49.49.33.79.7.89,1.11.1.42.16,1.09.16,2.01v2.74c0,1.06.02,1.71.06,1.94.04.23.16.4.36.51s.56.17,1.1.17v.51h-4.55v-.51c.48,0,.82-.05,1.02-.16.2-.11.32-.27.36-.49.04-.22.07-.87.07-1.96v-3.04c0-.62-.04-1.08-.11-1.39-.07-.31-.25-.58-.55-.8-.3-.22-.68-.33-1.16-.33s-.97.16-1.45.49-.97.82-1.46,1.48v3.59c0,.97.01,1.58.04,1.83.03.25.13.44.31.58.18.14.51.21.97.21v.51h-4.4v-.51c.5,0,.84-.05,1.04-.16.2-.1.32-.26.37-.48.05-.21.07-.87.07-1.98v-2.53c0-.8-.03-1.38-.09-1.74-.06-.36-.25-.67-.57-.92s-.72-.38-1.19-.38-.93.15-1.41.45c-.48.3-.97.74-1.46,1.33v3.79c0,1,.01,1.62.04,1.87.03.24.14.43.33.56.19.13.54.19,1.03.19v.51h-4.46v-.51c.49,0,.83-.05,1.03-.16.2-.11.32-.27.36-.48.04-.22.07-.87.07-1.97v-2.73c0-1.04-.02-1.67-.05-1.91s-.15-.41-.34-.53-.55-.18-1.06-.18v-.51c1.05-.1,1.92-.27,2.61-.5Z"/>
        <path class="cls-3" d="M211.54,78.67h.3c.13.42.19.92.19,1.5.47-.5.98-.88,1.53-1.13.55-.25,1.12-.37,1.73-.37,1.26,0,2.31.44,3.15,1.33s1.26,2.06,1.26,3.51-.42,2.61-1.26,3.57c-.84.96-1.95,1.44-3.32,1.44-.56,0-1.1-.11-1.62-.34-.52-.23-1-.56-1.46-1.01v3.46c0,1.05.02,1.69.06,1.92.04.23.16.4.35.52.19.11.55.17,1.08.17v.51h-4.76v-.51h.33c.53,0,.87-.08,1.03-.23.16-.15.25-.33.28-.55.03-.21.04-.82.04-1.84v-8.28c0-.97-.01-1.58-.04-1.84s-.13-.45-.32-.58c-.19-.13-.52-.2-.99-.2h-.33v-.51c.73-.07,1.66-.26,2.78-.56ZM212.03,86.44c.4.49.82.86,1.27,1.11.45.25.92.37,1.42.37.84,0,1.57-.36,2.19-1.08.62-.72.93-1.86.93-3.44,0-1.36-.3-2.38-.9-3.06-.6-.67-1.32-1.01-2.15-1.01-.51,0-1,.13-1.46.39s-.9.65-1.31,1.18v5.54Z"/>
        <path class="cls-3" d="M230.63,86.48h.41c-.07,1.27-.69,1.9-1.87,1.9-.5,0-.9-.13-1.2-.4-.29-.27-.48-.66-.57-1.19-.74.53-1.42.92-2.03,1.19-.61.27-1.16.4-1.64.4-.62,0-1.15-.18-1.59-.53-.45-.36-.67-.83-.67-1.41,0-.76.37-1.43,1.12-2,.75-.57,1.77-1.13,3.09-1.67l1.72-.7v-.45c0-.63-.04-1.09-.12-1.37-.08-.28-.29-.53-.63-.76-.34-.22-.79-.33-1.35-.33-1.11,0-1.73.37-1.86,1.11-.12.76-.43,1.13-.93,1.13-.45,0-.68-.22-.68-.65s.3-.88.9-1.36,1.53-.73,2.8-.73c.94,0,1.67.15,2.19.44.52.3.86.63,1.03,1.01.17.38.25.96.25,1.74v3.68c0,.86.04,1.41.13,1.66.09.24.28.37.58.37.49,0,.79-.36.91-1.09ZM227.4,82.59l-1.21.49c-1.91.78-2.87,1.76-2.87,2.94,0,.47.12.84.37,1.13.24.29.56.43.96.43.35,0,.75-.11,1.21-.34.46-.23.98-.57,1.55-1.03v-3.6Z"/>
        <path class="cls-3" d="M239.08,79.84c.63-.71,1.27-1.07,1.91-1.07.36,0,.63.1.83.29.2.19.29.4.29.63,0,.49-.22.73-.67.73-.24,0-.46-.15-.63-.46-.16-.28-.33-.42-.51-.42-.28,0-.59.19-.93.58.39.61.58,1.25.58,1.94,0,.89-.32,1.68-.96,2.36-.64.69-1.71,1.06-3.23,1.11-1.57.05-2.36.37-2.36.96,0,.27.18.47.53.58.35.12,1.08.21,2.2.27,1.22.06,2.17.17,2.83.34.66.17,1.19.5,1.58,1.01s.59,1.1.59,1.8c0,.98-.4,1.77-1.2,2.37s-1.95.9-3.46.9c-1.38,0-2.48-.27-3.31-.8-.83-.53-1.25-1.21-1.25-2.02,0-.45.12-.82.36-1.11.24-.29.57-.43,1.01-.43.12,0,.23.02.32.06-.46.5-.69,1.04-.69,1.6,0,.65.31,1.19.92,1.62.61.43,1.53.64,2.74.64,1.08,0,1.93-.22,2.53-.65s.91-.99.91-1.66c0-.74-.27-1.26-.81-1.57-.54-.3-1.51-.47-2.89-.53-1.59-.07-2.63-.26-3.1-.59-.47-.32-.71-.73-.71-1.23,0-.97.68-1.58,2.04-1.84-.7-.42-1.23-.89-1.59-1.42-.36-.53-.53-1.13-.53-1.79,0-.93.37-1.71,1.1-2.36.73-.65,1.6-.97,2.6-.97,1.24,0,2.23.39,2.98,1.17ZM234.07,82.26c0,.96.2,1.66.59,2.1.39.44.89.67,1.5.67.56,0,1.05-.22,1.45-.66.4-.44.61-1.21.61-2.3s-.22-1.85-.65-2.27c-.43-.42-.92-.62-1.46-.62-.68,0-1.19.26-1.53.77-.34.51-.51,1.28-.51,2.31Z"/>
        <path class="cls-3" d="M245.09,78.67h.3c.17.46.27,1.09.29,1.88.53-.63,1.09-1.1,1.68-1.41s1.2-.47,1.84-.47c.73,0,1.32.15,1.79.46.46.3.76.68.9,1.12.13.44.2,1.08.2,1.93v2.85c0,1.05.02,1.69.06,1.92.04.23.15.4.35.52.2.11.56.17,1.08.17v.51h-4.66v-.51h.21c.53,0,.88-.08,1.05-.23.16-.16.26-.34.28-.55.02-.21.03-.82.03-1.84v-2.94c0-.72-.04-1.23-.11-1.54-.07-.31-.26-.58-.57-.82-.31-.24-.7-.36-1.17-.36-.54,0-1.06.16-1.55.48s-.96.81-1.4,1.45v3.72c0,1.05.02,1.69.06,1.92.04.23.16.4.36.52.2.11.56.17,1.1.17v.51h-4.6v-.51c.51,0,.87-.05,1.07-.16.2-.1.32-.26.37-.47s.07-.87.07-1.99v-2.71c0-1.06-.02-1.7-.06-1.93-.04-.23-.16-.4-.36-.51s-.56-.17-1.1-.17v-.51c.82-.09,1.65-.26,2.5-.51Z"/>
        <path class="cls-3" d="M263.15,82.12h-6.35c-.03.44-.04.76-.04.98,0,1.6.25,2.81.75,3.61.5.8,1.25,1.21,2.24,1.21,1.35,0,2.31-.6,2.87-1.81h.53c-.24.76-.71,1.35-1.41,1.77-.7.43-1.47.64-2.3.64-.77,0-1.5-.19-2.19-.58-.69-.39-1.25-.94-1.69-1.65-.44-.71-.66-1.58-.66-2.59,0-1.44.42-2.63,1.27-3.59.85-.95,1.9-1.43,3.17-1.43,1.19,0,2.12.36,2.77,1.09.65.73,1,1.51,1.03,2.36ZM261.2,81.67c.02-.17.03-.32.03-.46,0-.65-.19-1.16-.57-1.52-.38-.36-.85-.54-1.41-.54-1.35,0-2.15.84-2.41,2.51h4.36Z"/>
      </g>
    </g>
    <g class="cls-1">
      <path class="cls-4" d="M201.03,31.75s-1.88,1.93-5.89,1.93-6.67.59-9.04,1.04c-2.37.45-7.86.45-9.79.74-1.93.3-8.9.3-14.24,0-5.34-.3-13.49-.3-19.57,2.67-6.08,2.97-8.6,3.86-11.72,4.45-3.11.59-7.71,1.48-10.68,2.08-2.97.59-9.49,2.08-13.35,2.08s-10.83-.15-12.6-1.34c-1.78-1.19-4.45-2.37-5.78-2.37s-4.45-1.19-5.34-1.63c-.89-.45-5.34-3.26-6.08-2.15-.74,1.11,0,2.6,1.93,2.89,1.93.3,2.83,1.63,5.05,2.08,2.22.44,6.07.89,5.93,1.78-.15.89.74,1.93-1.33,2.67-2.08.74-4.74,1.48-7.27,1.78-2.52.3-4.27,1.04-4.58,1.63-.31.59-.01,1.04,4.29,0,4.3-1.04,8.16-2.08,13.35-2.08s10.08-1.04,13.79-1.19c3.71-.15,9.49-1.63,14.68-1.78,5.19-.15,12.31-2.52,15.27-2.52s15.87-4.89,22.09-4.89,9.64-.15,14.98-.15,9.05-2.22,13.05-2.22,12.85,1.04,12.85,1.04"/>
      <path class="cls-4" d="M201.03,71.64s-.1-.3-3.81,0c-3.71.3-6.38-.59-9.79,0-3.41.59-10.38-.59-12.31,1.04-1.93,1.63-.89,4.45,0,5.34.89.89,3.11,3.11,6.97,3.85,3.86.74,3.56,1.93,7.71,2.37,4.15.45,10.58.89,11.22,1.78.64.89,1.09,2.52.79,4.45-.3,1.93-.3,2.97-3.11,2.97s-2.22-.3-6.82-.59c-4.6-.3-9.64-1.48-12.46-1.48s-7.12.15-8.16,2.82c-1.04,2.67-.3,6.23-3.71,6.23s-7.27,1.19-9.93.74c-2.67-.45-6.52-1.78-7.71-3.56-1.19-1.78-4-7.12-7.12-10.08-3.11-2.97-5.19-4.74-9.34-4.74s-9.64-.15-13.49-1.63c-3.85-1.48-11.91-3.85-13.96-4.74-2.05-.89-8.43-3.71-9.62-4-1.19-.3-3.71-2.08-6.53-2.82-2.82-.74-4.73-2.82-5.93-2.82s-3.42.15-.75,2.08c2.67,1.93,4.45,3.11,6.97,3.56,2.52.45,4.74,2.37,5.49,3.56.74,1.19,2.37,4.15.89,5.49-1.48,1.33-1.19,1.63-3.56,1.63s-4.89,1.04-7.56-.15c-2.67-1.19-4.89-2.22-5.93-3.86-1.04-1.63-1.48-4.15-2.89-5.49-1.41-1.34-3.93-1.93-6.15-2.67-2.22-.74-4.6-1.78-5.34-1.04-.74.74-1.04,3.11,2.08,3.11s5.78,0,6.38.74c.59.74,2.52,2.22,3.04,3.86.52,1.63,2.6,6.53,6.01,7.12,3.41.59,6.97,1.48,9.79,1.48s11.12,1.33,12.9,1.33,7.56-.45,10.53-.45,4.15,1.48,6.97,1.93c2.82.45,5.93.89,9.49.89s4.77.89,6.54,1.78c1.77.89,3.4,2.52,1.92,5.64,0,0-.72,2.08-1.92,2.52-1.2.45-1.94.3-3.42,2.52-1.48,2.22-2.67,3.86-4.89,3.86s-2.82-1.33-4.74,0c-1.93,1.33-2.37.3-3.71,1.33-1.34,1.04-2.08,1.48-3.41,1.93-1.33.45-2.22,1.34-4.45,1.34s-5.64.74-7.41,1.93c-1.78,1.19-3.86,1.48-5.34,1.19-1.48-.3-2.08-.89-4.3-.89s-6.97-1.04-8.3-1.04-2.37.59-5.64-1.63c-3.26-2.22-4.08-2.08-4.08-3.52s.56-1.67.56-3.45-.67-2.89-1.33-1.67c-.67,1.22-1.22,3.78-2.67,3.89-1.45.11-2.67-1.22-3.89-1.22s-3.56.22-1.22,1.22,4.78,1.11,5.56,2.67c.78,1.56.44,5.7,1.67,5.74,1.22.04,3.11-.74,4.56.6,1.45,1.34,1.31,1,1.6,2.89.29,1.89.51,3.67,2.29,4.23,1.78.56,5.45-.56,7.78-1.33,2.34-.78,4.56-1.56,9.01-1.56s8.12-1,12.12-1,7.23.45,7.23.45c0,0,1.78-.11,1.89,1.78.11,1.89,0,3.23,3.56,3.78,3.56.56,8.12.11,9.9,0,1.78-.11,6.67-4.56,8.45-5.67,1.78-1.11,1.78-1.22,4.78-1,3,.22,4.12,1.67,7.01,1.89,2.89.22,5.78,1.11,5.78,1.11,0,0-7.34,2.33-8.56,3.94-1.22,1.62-2.56,2.62-4.78,3.17-2.22.56-4.56.78-6.67,3.45-2.11,2.67-2.78,1.89-4.34,3.45-1.56,1.56-2.78,3.45-4.45,4.23-1.67.78-2,.89-3.56,3.23-1.56,2.33-3,4.23-5.01,4.34-2,.11-5.45.78-8.01,1.45-2.56.67-14.12,2.78-16.02,3.67-1.89.89-5.23,1.89-7.01,3.23-1.78,1.34-5.67,4.56-7.34,2.56-1.67-2-2.78-4.34-5.67-4.01-2.89.33-6.23,2.22-9.9,2.22s-5.12,0-6.79-.44c-1.67-.45-3-1.22-3.89.89-.89,2.11-.56,3.89,0,5.45.56,1.56.57,3.45-.55,4.89-1.12,1.45-5.79,3-6.35,4.67-.56,1.67-.44,3.89,2.11,2.78,2.56-1.11,5.89-5.56,9.01-6.12,3.11-.56,5.78-1.45,8.12,0,2.34,1.44,4.56,4,1.45,8.23-3.11,4.23-7.01,10.23-8.12,11.23-1.11,1-2.78.67-5.23,3.34s-4.56,4.66-4.56,4.66"/>
      <path class="cls-4" d="M2.26,194.68s.45-7.33,2-10.33c1.56-3,2.67-3.89,4.67-8.01,2-4.12,3.34-7.01,5.34-9.23,2-2.22,5.34-9.68,6.23-12.46.89-2.78,1.67-8.12,1.78-9.79.11-1.67-.11-3.56-.56-4.89-.45-1.33-3.34-4.34-3.34-5.34s-.56-1.89.89-1.67c1.45.22,3.11.56,4.45-1.22s2.11-12.12,2-14.01c-.11-1.89-1.56-5-1.56-6.56s.89-4.01,2.33-7.34c1.45-3.34,3.56-7.23,5.12-8.01,1.56-.78,3.56-2.22,6.01-2.33,2.45-.11,7.79-1.33,9.34-2.67,1.56-1.33,4.45-6.78,5.12-9.23.67-2.45.33-6.67,0-7.56-.33-.89-2-3.34-2.89-4.12-.89-.78-3.23-.63-3.23-3.15s-1-4.19-2.78-5.52c-1.78-1.33-2.56-2.22-3.23-2.67-.67-.45-2.45-1.11-3.89-1-1.45.11-4.12,1.22-4,2.22.11,1,.22,2.11.11,4.23-.11,2.11-.78,4.45-1.67,5.78-.89,1.33-3.34,3.89-4.01,5-.67,1.11-2.22,7.23-2.45,9.01-.22,1.78-1.56,6.06-3.56,7.39-2,1.34-5.67,2.22-8.12,1.89-3.25-.44-9.28-3.19-7.12-7.5,1-2,2.22-5.34,3.67-6.34s2.22-1.33,5.23-1.11c3,.22,5.45-1,6.23-1.89.78-.89,1.89-2.56,3.56-3.45,1.67-.89,2.45-2.33,2.45-4.34s-.11-7.34-.11-9.45-.22-3.83-1.22-6.31c-1-2.48-1.89-1.81-1.89-4.59s0-4.87-.22-5.88c-.22-1.02-.22-.9-1.67-1.35-1.45-.45-1.89-.78-3.11-2-1.22-1.22-2.45-2.45-3.23-3.11-.78-.67-.89-.56.22-2.11,1.11-1.56,1.22-2.56,1.22-3.34,0-1.65,1.99-1.56,3.15-1.45,2.29.22,4.54.69,6.81,1.09.72.13,2.53.53,2,1.63-.53,1.11-1.17,2.23-.98,3.51.25,1.67,1.25,4.45,1.81,5.34.56.89,0,2.89.67,4.56s1,4,4.12,4.56c3.11.56,4.78,1.67,7.12,1.67s3.56.44,5.56.78c2,.33,3.34.11,4.12,2.11.78,2,1.55,4.34,1.72,6.01.17,1.67,1.28,3.23,2.62,2.56,1.34-.67,1.89-.22,2.11-2.45.22-2.22.78-2.45,1.45-3.89.67-1.45.78-2.45,1.89-4.56,1.11-2.11,1.78-3.56,1.78-5.34s-.56-2.45,0-3.78c.56-1.34,1.22-1.22.67-2.78-.56-1.56-1.22-1.78-1.33-3.23-.11-1.44-.89-2.89-2-4-1.11-1.11-.45-3.34-1.22-4.89-.78-1.56-1.34-3.45-3.23-3.34-1.89.11-2.45-.33-3.89,1.11-1.45,1.45-2.67,3.34-3.67,4.78-1,1.45-1.89,2.45-3.34,3.89-1.44,1.44-.78,1.67-3,2.56-2.22.89-4.34,1.11-4.34,3.34s0,4.12,2.67,4.34c2.67.22,5,.33,7.56.78,2.56.45,2.11-.33,5.28,1.67,3.17,2,3.73,2.67,3.73,4s1,3.23,3.28,3.27"/>
      <path class="cls-4" d="M37.63,93.48s-1.82,3.26.23,3.4c1.92.13,1.52-1.5,3.77-.99,2.57.57,4.89.62,7.79,0,2.89-.63,5.23-3.63,6.45-4.63,1.22-1,2.56-1.45,3.67-3.45,1.11-2,.78-4.34.45-6.01-.33-1.67-3.23-5.01-3.45-6.34-.22-1.33-1.22-2.34-1.11-5.67.11-3.34.67-5.47,2-6.96,1.34-1.49,2.89-1.6,4.78-4.38,1.89-2.78,1.45-4.45,2.89-6.79,1.45-2.33,2.45-4.34,2.89-6.45.45-2.11,2.67-5.34,2.67-5.89s.45-2.67-2.11-4.45c-2.56-1.78-5.7-1.56-5.35-4.56.35-3,1.13-3.34,1.13-6.56s-.03-6.67-1.13-8.45c-1.1-1.78-4.99-8.45-6.44-10.79-1.45-2.33-2.78-4.23-3.56-5.23-.78-1-2-2.78-2-2.78,0,0-.22-1.67-2.22-3.56-2-1.89-3.11-4.11-4.67-5.78-1.56-1.67-2.67-4.45-4.34-7.01-1.67-2.56-1.64-2.56-3.04-4-1.4-1.45-1.51-2.78-1.07-4.78.45-2,2.78-5.78,4-7.34,1.22-1.56,2.11-7.56,3.11-9.79s.7-3.23,2.3-4,3.37-.56,3.37-2.89-.33-3.34-1.11-4.56c-.78-1.22-3.34-2.56-3.56-4.67-.22-2.11,0-4-1.89-5s-3.11-1.22-4.34-2.67c-1.22-1.45-2.78-1.34-2.78-4.67s.56-3.48-.45-5.47c-1-1.98-1.67-2.43-2.22-3.65-.56-1.22-1.44-2.56-1.33-5.23.11-2.67.89-5.89-1.11-7.67-2-1.78-5.67-1.45-6.89-2.89-1.22-1.45-2.22-1.67-2.22-4.12s.11-3.34-2.22-4c-2.33-.67-5-.78-5.67-1.89-.67-1.11.22-2.04,0-3.67-.22-1.63-2-1.33-1.7-4.15.3-2.82,1.04-5.78.74-6.53-.3-.74.3-1.93-2.67-1.63-2.97.3-5.04-.3-6.53.89-1.48,1.19-1.19,1.19-2.67,1.19s-.89-1.58-2.82-2.12c-1.93-.55-5.19-1.58-7.56-2.03-2.37-.45-5.04-1.33-5.93-2.97-.89-1.63-1.78-2.97-1.78-4.15v-2.61"/>
      <path class="cls-4" d="M45.37-136.94s-.74.09-2.37.98c-1.63.89-.44.59-2.52,1.04-2.08.44,0-.15-2.08.44-2.08.59-4-1.07-4.89.36-.89,1.42-.74,2.02-2.37,3.65-1.63,1.63-2.27,4.15-4.84,4.15s-3.91-2.08-5.39,0c-1.48,2.08-1.48,2.82-.74,3.71.74.89.74,0,.3,3.26-.45,3.26-2.31,4.74-.78,5.93,1.52,1.19,3.41,1.93,6.62,4.3,3.21,2.37,4.25,4.6,6.92,5.49,2.67.89,4,2.37,3.71,4.3s-.89,2.97.15,4.89c1.04,1.93,2.08,3.86,1.63,5.93-.45,2.08-1.19,2.37-.45,4.45.74,2.08.74,2.34.74,4.36s-.3,3.5,1.78,6.02c2.08,2.52,2.67,4.6,4.6,6.08,1.93,1.48,2.67,1.78,4.15,4.89,1.48,3.11,4.74,6.97,2.82,11.12-1.93,4.15-4.74,5.78-5.19,8.6-.45,2.82-1.63,3.56-1.63,6.23s-1.34,7.56,1.19,10.08c2.52,2.52,5.78,2.97,6.23,5.78.44,2.82-1.63,6.35,0,9.7,1.63,3.35,8.3,8.24,9.34,10.76,1.04,2.52,3.11,6.08,3.26,9.93.15,3.86,2.82,3.56,3.26,6.53s-1.04,3.55,0,8.37c1.04,4.82,0,6.31,2.67,7.35,2.67,1.04,6.08-.82,7.56-1.45,1.48-.63,3.43-.48,4.76-3.15,1.32-2.67,1.77-5.64,3.7-8.6,1.93-2.97,1.78-3.26,4.15-4.74,2.37-1.48,3.85-5.19,3.85-5.19"/>
      <path class="cls-4" d="M-14.39,194.68v-7.51c0-3.41-.74-8.16.89-11.57,1.63-3.41,1.63-5.64,4.15-7.86,2.52-2.22,2.67-4.45,4.6-6.08,1.93-1.63,3.56-3.11,4.89-5.34,1.33-2.22,4.3-5.19,4.3-8.16s-.44-5.34,1.04-7.86c1.48-2.52,5.19-6.72,1.48-9.59-3.71-2.87-7.56-6.43-7.86-8.65-.3-2.22-.89-3.86-3.56-5.64-2.67-1.78-2.52-1.19-4.15-3.26-1.63-2.08-1.48-3.11-2.22-5.04-.74-1.93-1.93-3.71-1.93-6.97s1.19-4.3,2.37-7.12c1.19-2.82,1.48-4.74,2.22-6.67s.74-3.86,2.67-3.11,2.67,2.97,4.3,2.97,4,1.19,4.74,3.26c.74,2.08,1.19,5,5.01,4,3.82-1,9.82-.24,11.9,2.7,2.08,2.94,3.11,4.72,3.11,7.68s.59,6.3.59,6.3"/>
      <path class="cls-4" d="M201.03-17.18c-9.09,6.9-18.71,6.67-24.49,7.79-5.78,1.11-10.23,4.23-13.12,6.45-2.89,2.22-12.46,6.67-16.68,7.78-4.23,1.11-9.34,3.56-12.9,5.78-3.56,2.22-7.12,6.01-8.9,7.34-1.78,1.34-13.12,5.78-16.24,7.12-3.11,1.34-2.67,2.89-2.67,2.89,0,0,1.63.96,4,0,2.37-.96,5.49-2.59,7.27-2.59s9.93-3.86,12.46-5.49c2.52-1.63,5.04-4.15,14.98-7.41,9.93-3.26,21.65-5.87,24.02-6.87,2.37-.99,10.53-6.78,18.39-8.26,7.86-1.48,17.79-6.97,19.43-8.01"/>
      <path class="cls-4" d="M-33.45,95.81s3.19,4.45,5.12,5.19c1.93.74,6.82,1.93,8.9-2.59,2.08-4.52,4.3-9.42,5.49-12.38,1.19-2.97-.3-2.08,1.19-4.89,1.48-2.82,1.19-6.08,2.22-8.45,1.04-2.37-.89-3.71,3.11-3.85,4.01-.15,6.23-.3,6.97-1.34.74-1.04,1.04-2.67,0-3.71-1.04-1.04-2.22-1.93-2.22-3.56s1.19-2.67-.3-3.56c-1.48-.89-2.97-.3-3.71-2.67-.74-2.37.89-4.15-2.08-5.93-2.97-1.78-5.53-.89-5.8-3.26-.28-2.37-.87-3.26,1.06-4,1.93-.74,3.71-3.11,2.67-4.6-1.04-1.48-1.67-2.08-3.73-2.08s-6.95,2.52-7.1,0c-.15-2.52,1.33-3.41,2.52-4.45,1.19-1.04,1.63-1.34.3-3.56-1.33-2.22-1.93-4.74-1.48-5.78.45-1.04,2.37-.45,3.71,0,1.33.45,2.96,1.48,5.19.89,2.22-.59.3-.3,4.6-.59,4.3-.3,5.79-2.97,7.05-3.56,1.26-.59,1.4-1.93,3.48,0,0,0,.82-3.86-1.45-5.93C0,9.06,0,8.77-2.82,9.21c-2.82.45-2.97,1.63-5.34.59-2.37-1.04-3.26-1.69-5.34-.77-2.08.92-1.78,2.85-4.6,2.85s-5.78-3.26-7.56-2.08c-1.78,1.19-2.82,2.22-2.82,5.19s.89,5.04-.3,6.97c-1.19,1.93-3.56,3.71-1.93,5.49,1.63,1.78,1.93,1.93,1.93,4.3s-1.93,3.56-.15,6.53c1.78,2.97,3.71,5.93,5.49,7.12,1.78,1.19,6.04,4.74,8.88,6.67,2.84,1.93,7.88,4.6,7.88,7.41s.3,5.78-1.78,6.67c-2.08.89-3.41.74-5.04,3.26-1.63,2.52-1.14,3.26-3.09,5.93s-4.77,4.45-6.55,1.48c-1.78-2.97-1.48-4.3-2.52-7.12-1.04-2.82-4.9-8.01-7.79-8.16"/>
      <path class="cls-4" d="M24.03,110.28s-.86,7.2-5.5,7.87c-4.64.68-6.45,1.27-9.23,1.75-2.78.48-6.39-.21-8.66-4.25-2.27-4.04-6.18-11.36-4.54-13.16,1.65-1.8,1.9-2.42,6.15-1.59,4.26.82,9.82.21,11.78-2.37,1.96-2.58-.31-4.12-6.6-5.15,0,0-2.58-.72-4.38-4.43-1.8-3.71-2.5-1.19-5.23-2.8-2.73-1.61-1.91-2.19-4.13-2.07s-2.85,2.29-2.43,6.92c.41,4.64-1.75,2.99-1.13,7.42.62,4.43.7,5.54-.11,8.35-.82,2.81.74,6.62,3.5,8.4,2.76,1.78,7.02,3.35,7.84,6.65.82,3.3-.13,3.96,5.6,8.88"/>
      <path class="cls-4" d="M3.76,16.76s-.04.45-.19,1.03c-.62,2.51-1.74,9.21,4.95,10.25,8.23,1.29,8.11,1.32,8.11,1.32"/>
      <path class="cls-4" d="M51.87-2.54s-1.75,5.72-9.35,5.44c-7.6-.28-5.41-.66-6.65-1.86-1.24-1.2-1.7-3.81-5.86-2.78-4.15,1.02-1.41,5.24.77,6.2,2.18.95-1.58,5.98,2.74,8.13,4.32,2.16,17.23,7.03,14.95,12.32-2.28,5.29-3.15,7.66-7.52,8.63-4.37.98-3.88,2.42-8.23,1.49-4.35-.93-2.54,2.12-1.01,4.49,1.53,2.37.98,9.35,8.15,9.35,7.17,0,11.21.95,12.46,3.81,1.25,2.86,2.72,3.42,2.27,5.37-.45,1.95-.49,3.85,0,4.23"/>
      <path class="cls-4" d="M163.27,120.33s1.85-.44,3.07-1.08c3.15-1.65,8.77-4.82,10.79-4.99,2.65-.22,2.31-3.89,3.32-5.6,2.6-4.43,7.64-4.3,11.64-6.51,4.02-2.22,5.99-6.68,10.82-7.87"/>
      <path class="cls-4" d="M202.25,96c-2.08,0-3.48,1.01-3.82,3.35-.33,2.34-3.01,3.35-11.32,2.75-8.31-.6-6.88.97-10.95,1.19-4.08.22-6.13-.86-12.99.74-6.86,1.59-4.62.32-12.6-.74-7.97-1.06-7.65,4.57-9.41,6.25-1.75,1.69-3.51.39-6.06,2.95-2.55,2.56-11.77,5.99-11.77,5.99,0,0-1.84,3.04-4.97,4.29-3.13,1.25-5.83,2.12-7.29,3.18-1.46,1.06-9.07,0-14.6,0s-8.41,1.85-11.34,2.65c-2.93.79-12.34,3.16-20.69-3.21-1.49-1.14-2.96-2.38-4.13-3.86-.53-.67-.89-1.5-1.47-2.12-.97-1.04-2.53-.94-3.83-.98-1.63-.05-2.43-.37-3.58-1.49-.6-.59-1.13-1.28-1.69-1.91-.19-.21-.39-.44-.66-.53-.28-.1-.59-.04-.88.01-1.87.35-3.91.56-5.6-.31-.76-.39-1.51-1-2.35-.89-1.07.13-1.67,1.45-1.38,2.49.29,1.04,1.19,1.79,2.13,2.31,4.27,2.38,10.04,2.15,12.38,7.26,1.71,3.74,4.51,6.94,7.94,9.19,3.37,2.21,7.21,3.07,11.11,3.83,2.07.41,3.45,5.44,2.17,7.22-.97,1.34-3.78,1.31-5.21,1.27-1.82-.05-4.33-.24-4.85-2.38-.4-1.67.69-7.66-2.87-6.1-1.96.86-4.22.82-6.14-.11-2.01-.97-3.03-2.64-3.99-4.55-1.89-3.75-4.05-7.15-8.18-8.68-.05-.02-.1-.04-.15-.05-1.71-.61-3.37-1.38-5.1-1.95-1.04-.35-2.18-.78-3.3-.61-1.1.17-1.86.31-2.44-.89-.29-.59-.38-1.24-.56-1.87-.41-1.43-2.28-3.12-3.24-1.1-1.24,2.58-1.51,8.42-3.69,9.06"/>
      <path class="cls-4" d="M45.97,66.75s-3.28-6.46-7.5-6.9c-4.22-.43-5.61,2.94-5.75,7.96-.08,3.02-2.08,4.45-3.17,7.04-1.75,4.13.11,8.62-.91,12.87-.83,3.43-3.06,6.73-6.26,8.31-1.87.93-6.38,1.99-7.93-.04"/>
      <path class="cls-4" d="M150.99,98.65s.76-4,5.54-4.72c4.78-.73,5.3-3.43,5.3-4.68s2.18-4.16,5.72-4.37c3.53-.21,7.78-5.32,7.58-6.87"/>
      <path class="cls-4" d="M183.2,71.81s2.49-1.65,2.49-4.22,1.16-2.9,2.73-2.73c1.57.16,2.82.25,3.97-.91,1.16-1.16,2.4-1.9,3.23,0s3.72,5.38,6.29,5.71"/>
      <path class="cls-4" d="M179.23,71.79s4.55-5.85,5.3-7.34c.74-1.49,1.32-1.92,3.56-1.66,1.1.13,2.01-.42,2.87-1.02,1.02-.72,1.83-1.07,3.08-1.35,1.77-.4,2.97.05,3.99,1.56,1.9,2.82,1.99,5.35,4.22,4.78"/>
      <path class="cls-4" d="M-36.42,5.61s2.14-6.51,6.84-7.2c4.7-.69,3.59-3.42,7.88-2.88,4.29.53,9.54,2.19,16.86,6.75C2.48,6.83,5.24,6.18,7.87,5.61c2.62-.57,4.03.53,6.57,2.05,2.55,1.52,2.41-3.18,6.97-1.1,4.56,2.07,9.91,2.04,9.91,2.04"/>
      <path class="cls-4" d="M-9.29-.28S-4-1.88-2.17-3.92C-.34-5.95.61-5.95,5.08-5.95s6.78-4.65,7.46,1.47c.68,6.12,6.17,7.34,11.63,8.43,5.45,1.08,6.62.51,6.62.51"/>
      <path class="cls-4" d="M3.76,16.76s1.04,4.73,4.7,5c2.42.18,4.91-2.32,6.99-3.27,1.01-.46,2.29-1,3.39-.51,2.15.94,1,2.97.24,4.46-1.8,3.53-2.21,4.98-2.45,6.42"/>
      <path class="cls-4" d="M-6.31,84.09s-.25-3.7,3.76-3.7.89-5.23,4.81-6.41c3.91-1.18,7.99-2.98,9.66-4.35,1.67-1.38,3.86-5.42,3.69-9.81-.17-4.38.84-10.79-2.87-12.81-3.71-2.02-6.27-2.36-5.83-5.56.44-3.2-2.53-6.74-3.83-7.92-1.3-1.18-4.33-3.37-2.98,0,1.35,3.37,3.71,5.39,4.55,7.25.84,1.85,1.51,2.19,3.88,7.08,2.36,4.89,3.57,4.87,3.39,9.51-.18,4.65-1.24,7.22-2.06,9.39-.82,2.17-2.17,2.51-2.95,4.2-.78,1.68-10.01,2.86-12.54,5.06-2.53,2.19-4.26,4.17-4.57,8.07-.32,3.9-1.06,6.55-2.84,10.31-1.78,3.75-2.78,4.92-2.78,4.92"/>
      <path class="cls-4" d="M-12.51,103.56c-1.91,2.95-3.57,6.05-5.02,9.26-1.58,3.49-2.96,7.18-2.9,11.07.04,2.65.28,5.92,2.24,8.01,2.66,2.84,6.64,3.03,10.28,2.73,2.01-.17,3.93-1.05,5.91-1.39.82-.14,3.02-.55,3.68.12,2.82,2.9-10.47,3.46-11.6,3.55-1.68.13-5.14-.57-5.79,1.64-.22.76-.07,1.58.08,2.36.78,3.93,1.58,6.6.35,10.55-.66,2.12-3.9-2.08-4.35-2.65-1.19-1.49-3.75-6.76-6.13-5.13-1.84,1.27-2.56,3.75-1.72,5.79.35.86.82,1.68.92,2.6.23,1.94-.46,3.54.51,5.4.73,1.41,2.09,2.18,1.9,3.96-.27,2.47-.8,4.75,1.07,5.95,1.88,1.2,1.21,2.54,4.28,4.15,3.08,1.61,5.3,3.34,4.89,5.12"/>
      <path class="cls-4" d="M202.25,108.42c-.92,0-2.29-.45-2.98.39-.29.36-.38.83-.57,1.25-.53,1.18-2.31.98-2.96,2.1-.37.66-.52.91-1.11,1.33-.85.59-.65.61-.84,1.73-.16.96-1.22,1.02-1.71,1.7-.54.75.23,1.74-.22,2.45-.48.75-1.65.73-2.43.77-1.07.04-2.08.26-3.15.34-1.22.09-2.27-.51-3.46-.64-.63-.07-.8.02-1.36-.35-.4-.26-.53-.78-1.11-.72-.98.11-1,1.14-1.25,1.89-.18.56-1.14-.03-1.37-.25-.6-.57-.41-1.14-.59-1.91-.27-1.1-.75-1.63-2.02-1.56-1.41.08-.88.98-1.71,1.58-.62.45-1.99.66-2.74.93-1.1.39-2.18.65-3.33.9-1.41.3-1.88,2.26-3.38,2.21-.31-.01-1.21-.23-1.46-.1-.45.22-.91,1.4-1.18,1.82-.87,1.38-1.17,1.16-2.69,1.24-1.03.05-2.49.49-2.91,1.54-.38.95.15,2.18.1,3.17-.08,1.68-.93,3.27-2.44,4.09-.96.52-2.25.29-3.18.89-.6.38-.76,1.06-1.24,1.45-.63.51-1.39.04-2.01.48-.48.35-.22,1.33-.26,1.95-.12,1.67-.9,2.72-2.7,2.52-.98-.11-1.9-.69-2.56.42-.51.86-.65,1.98-.92,2.94"/>
      <path class="cls-4" d="M163.27,120.33c2.81-1.01,5.63-1.99,8.44-3,2.45-.88,4.84-2.41,7.54-2.35,3.8.09,7.71-2.47,10.66-3.43,2.95-.95,6.95-3.9,8.09-4.85,1.14-.95,2.09-2.09,1.71-3.62-.38-1.52-1.22-1.95-1.94-2.31"/>
      <path class="cls-4" d="M108.78,77.39s6.05-8.35,13.03-8.94c6.98-.6,7.18-3.17,9.95-7.13,2.77-3.96,3.41-4.36,7.05-5.54,3.64-1.19,13.11-5.35,13.72-5.55.62-.2,9.76-3.76,1.42-4.95-8.33-1.19-10.98-1.83-10.98-1.83"/>
      <path class="cls-4" d="M132.46,18.03s3.64,1.21,7.69,0c4.05-1.21,9.29-1.19,13.04,0,3.75,1.19,16.19.89,21.13-1.66,2.88-1.48,6.32-2.08,9.49-2.56,1.75-.27,8.01-1.66,9.33.03,1.87,2.4-3.54,3.63-4.74,3.73-3.45.3-13.94.75-18.59,4.5-4.95,3.99-11.2,5.71-17.13,7.65-4.4,1.43-14.22,3.96-13.88,10.16"/>
      <path class="cls-4" d="M126.33,16.78c1.34-2.51,3.01-4.86,4.95-6.94,2.07-2.22,4.46-3.7,6.9-5.46,3.06-2.2,5.89-4.81,9.04-6.85,2.04-1.32,4.38-2.06,6.63-2.94,4.59-1.8,8.55-4.62,12.73-7.18,2.07-1.27,7.44-4.11,5.6-7.28-1.6-2.76-6.07-1.48-10.43.64-5.47,2.67-11.42,3.87-17.1,5.94-5.12,1.87-10.56,2.93-16.01,2.09"/>
      <path class="cls-4" d="M202.35-27.97s-3.49,1.62-4.53,3.69c-1.51,2.97-5.03,5.12-7.7,7.11-2.41,1.8-5.7,2.49-8.29,4.15-2.29,1.47-6.68,5.13-7.85,7.71-.76,1.69-6.11,1.64-5.28,2.97,1.12,1.81,4.6,1.98,6.43,2.37,5.44,1.14,9.88,4.21,15.51,4.76,5.58.54,11.17-.16,16.76-.16"/>
      <path class="cls-4" d="M169.78,39.87s1.15,2.5,4.42,2.35c3.26-.15,9.79-.1,12.28,1.22,2.49,1.32,2.79-.93,7.06,0,4.27.93,11.34,1.32,8.38,6.12-2.96,4.8-3.73,9.4-16.97,4.61,0,0-4.03-1.73-7.87.77-3.84,2.49-4.82,0-8.46,2.11-3.64,2.11-6.68,1.89-5.35,5.74,1.33,3.85,1.49,2.7-.32,6.16-1.14,2.19.04,4.73-2.12,6.45-.92.74-2.12,1.03-3.13,1.65-2.74,1.7-.84,4.26-5.11,3.13-2.32-.62-5.11-2.45-7.57-2.15-2.69.33-8.12,2.62-8.28,5.22"/>
      <path class="cls-4" d="M57.29,118.6s-5.07-4.22-3.28-9.05c1.79-4.83,2.95-1.79,7-2.15,3.86-.35,3.41-4.54,3.97-7.35.74-3.76,5.11-5.81,8.8-5.77,3.62.04,8.44,1.58,8.44-3.05,0-1.08.06-2.17.11-3.25.02-.54-.1-1.15-.54-1.46-.24-.16-.54-.22-.83-.26-3.9-.5-13.28,4.69-14.19-1.75-.95-6.77,4.61-7.11,9.81-6"/>
      <path class="cls-4" d="M90.36,112.14c4.9-.67,2.92-6.31,4.66-9.41,1.08-1.93,2.69-1.61,4.33-2.67,1.99-1.3,2.52-3.65,3.97-5.39,2.78-3.32,7.8-2.7,11.65-3.23,2.21-.31,2.47-2.25,2.94-4.08"/>
      <path class="cls-4" d="M59.93,60.89s-.17,2.39,5.19,1.41c5.36-.99,7.77,1.23,11.47.49,3.71-.74,9.4.82,13.78,2.72,4.37,1.9,8.09-2.97,11.07-3.22,2.98-.24,9.38-3.07,10.12-5.75.74-2.68,1.28-5.36-2.78-6.4-4.06-1.04-5.4,1.34-9.87,1.34s-11.16.89-15.78,2.09c-4.62,1.19-9.68,3.42-10.27-2.83-.3-3.14-.01-6.31.36-9.43.24-2.03.87-4.23.19-6.24-.7-2.07-2.97-3.42-4.85-1.84-.39.33-.91,1.06-1.5.8"/>
      <path class="cls-4" d="M94.16,45.4s-.58-.69,4.73-1.95c5.31-1.26,8.48-4.27,7.11-7.36-1.37-3.09-3.59-1.94-4.96-2.15-1.36-.21-4.52-1.58-2.66-4.16,1.87-2.58.53-3.45-.02-4.13-.55-.68-.65-1.73,1.87-3.14,2.51-1.42,4.92-6.16,4.61-8.75-.31-2.59-3.05-4.29-5.24-3.95-5.64.87-6.22-5.94-6.83-9.26-1.28-6.92-5.07-5.9-6.77-9.87-1.69-3.97-9.41-12.11-9.41-12.11"/>
      <path class="cls-4" d="M113.56,78.94s2.69-3.47,9.24-2.56c6.55.9,21.24,2.39,20.56-4.57-.68-6.96-15.55-15.69-10.26-19.12,3.04-1.97,4.28.79,5.99,2.82,1.96,2.33,5.62,3.89,8.6,4.19,1.49.15,3.42-.23,4.53-1.32,1.18-1.17.25-3.06,1.04-4.37,1.17-1.93,3.94-1.29,5.85-1.15,2.5.18,13,2.63,12.26-2.47-.66-4.52-2.76-10.86-2.76-10.86"/>
      <path class="cls-4" d="M113.56-6.28c3.82-.62,8.49-2.33,12.17-.39.41.22.83.51.95.95.2.7-.41,1.34-.91,1.87-.62.67-1.14,1.43-1.55,2.24-.33.67-.58,1.49-.24,2.16.32.62,1.07.93,1.77.9.7-.02,1.36-.32,1.99-.61,3.47-1.64,7-3.59,9.87-6.17,2.81-2.52,5.43-4.39,9.29-4.86,3.9-.47,7.48-2.37,10.94-4.12,1.63-.83,3.28-1.63,4.94-2.41.79-.37,2.23-1.35,3.15-1.24,1.22.15,2.59,1.22,0,3.04-2.6,1.84-5.01,1.73-4.46,5.51"/>
      <path class="cls-4" d="M108.01,25.41s-2.54-.41.88-2.08c3.42-1.67,5.42-3.38,4.67-6.54-.75-3.17-2.05-4.67-1.48-6.68.46-1.62.45-3.99-1.61-4.45-2.23-.5-3.6,1.69-5.54-.34-1.58-1.65-3.76-4.01-3.27-6.5.3-1.55,1.5-2.74,1.86-4.29.42-1.76.26-3.73-.66-5.31-1.69-2.89-6.1-3.61-6.29-7.52"/>
      <path class="cls-4" d="M111.52,27.34c1.49-.55,3.98-1.21,4.31.92.24,1.54-1.92,3.88,1.07,3.5,1.27-.16,4.14-2.71,5.26-1.47,1.23,1.38-1.18,3.8-2,4.74-1.78,2.04-3.19,3.19-3.05,6.12.04.77.49,4.03-.62,4.25"/>
      <path class="cls-4" d="M80.38,29.88c-8.87-1.81-5.85-12.92-3.62-18.71,2.39-6.2-1.67-12.32-.36-18.54.69-3.3,1.74-6.8,3.28-9.81l.05-.78"/>
      <path class="cls-4" d="M49.58.72s-3.34.12-5.11-2.24c-1.77-2.35-1.77-2.82-4.17-2.96-1.07-.07-2.79.55-3.62-.32-1.42-1.49.44-4.11-.12-5.71-.14-.4-.44-.73-.75-1.01-.59-.52-1.3-.94-2.07-1.06-.71-.1-1.43.06-2.14.1-.71.04-1.5-.08-1.99-.6-1.33-1.44.23-4.54.71-6.03.6-1.85,1.57-6.01-1.71-5.57-5.1.68-10.18,1.08-14.81-1.7-.38-.23-.76-.48-1-.85-2.12-3.23,8.72-2.28,9.7-3.67,1.77-2.52,2.65-5.8,5.37-5.55,1.78.16,4.31,3.91,5.78,1.13.63-1.19,1.06-2.45,1.42-3.75"/>
    </g>
  </g>
</svg>