<?xml version="1.0" encoding="UTF-8"?>
<svg id="Calque_2" data-name="Calque 2" xmlns="http://www.w3.org/2000/svg" xmlns:xlink="http://www.w3.org/1999/xlink" viewBox="0 0 146.98 208.85">
  <defs>
    <style>
      .cls-1, .cls-2 {
        fill: none;
      }

      .cls-3 {
        font-family: Baskerville, Baskerville;
        font-size: 22.86px;
      }

      .cls-3, .cls-4 {
        fill: #fff;
      }

      .cls-2 {
        stroke: #fff;
        stroke-miterlimit: 10;
        stroke-width: .44px;
      }

      .cls-5 {
        clip-path: url(#clippath);
      }
    </style>
    <clipPath id="clippath">
      <path class="cls-1" d="M123.29,8.62C118.26,3.19,111.7.3,103.82.02c-.33-.01-.66-.02-.99-.02-13.29,0-26.07,10.15-29.32,23.43v.22-.11s-.03.11-.03.11v-.22C70.23,10.15,57.44,0,44.16,0c-.33,0-.66,0-.99.02-7.89.28-14.44,3.17-19.48,8.6-6.93,7.46-11.69,19.59-10.08,33.03,2.34,19.54,10.53,35.54,28.09,53.67,6.82,7.04,27.51,20.88,31.79,20.88,0,0,0,0,0,0s0,0,0,0c4.28,0,24.97-13.83,31.79-20.88,17.56-18.13,25.75-34.12,28.09-53.67,1.61-13.44-3.16-25.57-10.08-33.03Z"/>
    </clipPath>
  </defs>
  <g id="Calque_1-2" data-name="Calque 1">
    <g>
      <g>
        <path class="cls-4" d="M31.68,148.17h-7.66l-1.49,4.04h-3.82l7.83-19.56h2.64l7.8,19.56h-3.82l-1.49-4.04ZM30.5,144.94l-2.64-7.13-2.64,7.13h5.28Z"/>
        <path class="cls-4" d="M38.58,145.14v-12.49h3.51v12.09c0,3.31,1.07,4.49,3.96,4.49s3.98-1.21,3.98-4.49v-12.09h3.51v12.35c0,5.08-2.55,7.63-7.49,7.63s-7.46-2.5-7.46-7.49Z"/>
        <path class="cls-4" d="M68.72,152.21l-4.69-8.11h-2.47v8.11h-3.48v-19.56h6.4c4.66,0,6.65,2.13,6.65,5.64,0,2.81-1.29,4.6-3.62,5.39l5.28,8.53h-4.07ZM64.12,140.87c2.27,0,3.51-.62,3.51-2.53s-1.23-2.47-3.51-2.47h-2.55v4.99h2.55Z"/>
        <path class="cls-4" d="M74.02,142.45c0-6.14,3.79-10.21,9.34-10.21s9.34,4.07,9.34,10.21-3.79,10.19-9.34,10.19-9.34-4.07-9.34-10.19ZM89.21,142.45c0-4.24-2.27-6.87-5.84-6.87s-5.84,2.61-5.84,6.87,2.27,6.85,5.84,6.85,5.84-2.64,5.84-6.85Z"/>
        <path class="cls-4" d="M106.91,152.21l-4.69-8.11h-2.47v8.11h-3.48v-19.56h6.4c4.66,0,6.65,2.13,6.65,5.64,0,2.81-1.29,4.6-3.62,5.39l5.28,8.53h-4.07ZM102.31,140.87c2.27,0,3.51-.62,3.51-2.53s-1.23-2.47-3.51-2.47h-2.55v4.99h2.55Z"/>
        <path class="cls-4" d="M113.73,132.65h13.02v3.23h-9.51v4.66h8.84v3.23h-8.84v5.22h9.51v3.23h-13.02v-19.56Z"/>
        <path class="cls-4" d="M1.12,168.4c0-6.26,3.7-10.21,9.48-10.21,4.12,0,7.24,1.99,8.67,5.72l-3.23,1.26c-.87-2.44-2.78-3.65-5.44-3.65-3.79,0-5.98,2.47-5.98,6.85s2.22,6.9,5.98,6.9c2.69,0,4.6-1.26,5.44-3.73l3.28,1.23c-1.4,3.79-4.55,5.84-8.73,5.84-5.78,0-9.48-3.96-9.48-10.21Z"/>
        <path class="cls-4" d="M32.21,174.15h-7.66l-1.49,4.04h-3.82l7.83-19.56h2.64l7.8,19.56h-3.82l-1.49-4.04ZM31.04,170.93l-2.64-7.13-2.64,7.13h5.28Z"/>
        <path class="cls-4" d="M38.11,172.67l3.48-.87c.25,2.33,1.8,3.65,4.07,3.65,1.96,0,3.23-.98,3.23-2.64,0-1.35-1.01-2.19-3.9-3.34-4.1-1.6-5.56-3.09-5.56-5.92,0-3.17,2.44-5.33,6.09-5.33,2.64,0,4.71,1.21,5.95,3.56l-2.92,1.8c-.67-1.46-1.82-2.24-3.14-2.24-1.4,0-2.47.93-2.47,2.13,0,1.29.95,2.02,3.9,3.17,4.18,1.6,5.56,3.09,5.56,5.87,0,3.65-2.78,6.06-6.79,6.06s-6.93-2.33-7.49-5.89Z"/>
        <path class="cls-4" d="M65.86,174.15h-7.66l-1.49,4.04h-3.82l7.83-19.56h2.64l7.8,19.56h-3.82l-1.49-4.04ZM64.68,170.93l-2.64-7.13-2.64,7.13h5.28Z"/>
        <path class="cls-4" d="M89.09,158.64v19.56h-3.65l-8.19-13.53v13.53h-3.51v-19.56h3.62l8.22,13.47v-13.47h3.51Z"/>
        <path class="cls-4" d="M92.66,168.43c0-6.14,3.79-10.21,9.34-10.21s9.34,4.07,9.34,10.21-3.79,10.19-9.34,10.19-9.34-4.07-9.34-10.19ZM107.84,168.43c0-4.24-2.27-6.87-5.84-6.87s-5.84,2.61-5.84,6.87,2.27,6.85,5.84,6.85,5.84-2.64,5.84-6.85Z"/>
        <path class="cls-4" d="M130.12,158.64l-7.8,19.56h-2.64l-7.83-19.56h3.87l5.28,13.83,5.25-13.83h3.87Z"/>
        <path class="cls-4" d="M141.57,174.15h-7.66l-1.49,4.04h-3.82l7.83-19.56h2.64l7.8,19.56h-3.82l-1.49-4.04ZM140.39,170.93l-2.64-7.13-2.64,7.13h5.28Z"/>
      </g>
      <text class="cls-3" transform="translate(16.92 200.98)"><tspan x="0" y="0">Champagne</tspan></text>
    </g>
    <g class="cls-5">
      <g>
        <path class="cls-2" d="M185.65-51.81s-3.25,1.84-6.14,3.94c-2.89,2.1-5.39,4.08-8.68,5.26-3.29,1.18-10.12,3.94-12.88,4.73-2.76.79-8.15,4.07-11.17,5.13s-7.89,4.34-11.17,5.78c-3.29,1.45-4.07,2.1-8.15,3.42-4.08,1.31-10.25,5.92-11.96,6.45-1.71.54-10.38,5.38-13.14,6.3-2.76.92-8.94,3.94-10.78,5.13-1.84,1.18,2.37.79,3.55.66,1.18-.13,6.84-3.55,9.73-4.6,2.89-1.05,8.15-3.81,10.91-4.73,2.76-.92,9.86-4.47,11.44-5.52,1.58-1.05,2.63-1.58,4.6-2.1,1.97-.53,6.05-2.1,7.62-2.63,1.58-.53,4.34-1.71,7.23-2.63,2.89-.92,10.65-3.42,14.2-3.94,3.55-.53.39,1.84.39,1.84,0,0-3.15,3.94-5.52,5.65-2.37,1.71-4.47,3.94-7.62,5.92-3.15,1.97-11.96,3.55-15.64,3.94-3.68.39-5.26,1.31-7.49,2.89-2.23,1.58-4.07,4.86-6.44,5.65-2.37.79-3.55,2.23-4.21,3.15-.66.92-2.63,3.02-4.6,4.47-1.97,1.45-2.89,1.18-4.73,3.15-1.84,1.97,0,1.64,0,1.64,0,0,5.92-3.16,9.86-4.34,3.94-1.18,11.83-3.16,16.56-5.13,4.73-1.97,11.24-3.35,14.39-4.34,3.15-.99,8.28-4.14,11.24-5.72,2.96-1.58,9.86-7.89,12.23-9.86,2.37-1.97,10.47-10.35,12.17-9.88,1.74.49,4.22,2.78,4.22,2.78"/>
        <path class="cls-2" d="M185.65,39.29s-1.67,1.71-5.22,1.71-5.92.53-8.02.92c-2.1.39-6.97.39-8.68.66-1.71.26-7.89.26-12.62,0-4.73-.26-11.96-.26-17.35,2.37-5.39,2.63-7.62,3.42-10.39,3.94-2.76.53-6.84,1.31-9.46,1.84-2.63.53-8.41,1.84-11.83,1.84s-9.6-.13-11.17-1.18c-1.58-1.05-3.94-2.1-5.13-2.1s-3.94-1.05-4.73-1.45c-.79-.39-4.73-2.89-5.39-1.91-.66.99,0,2.3,1.71,2.56,1.71.26,2.51,1.45,4.47,1.84,1.97.39,5.38.79,5.25,1.58-.13.79.66,1.71-1.18,2.37-1.84.66-4.21,1.31-6.44,1.58-2.23.26-3.79.92-4.06,1.45-.27.53-.01.92,3.8,0,3.81-.92,7.23-1.84,11.83-1.84s8.94-.92,12.23-1.05c3.29-.13,8.41-1.45,13.01-1.58,4.6-.13,10.91-2.23,13.54-2.23s14.06-4.34,19.59-4.34,8.54-.13,13.28-.13,8.02-1.97,11.57-1.97,11.39.92,11.39.92"/>
        <path class="cls-2" d="M185.65-77.31s-5.35,2.76-8.11,3.81c-2.76,1.05-8.41,2.63-10.52,5.39-2.1,2.76-5.78,9.99-11.04,14.2-5.26,4.21-6.51,4.08-8.44,4.86-1.94.79-3.78,2.63-6.41,3.29-2.63.66-10.12,1.84-11.44,2.5-1.31.66-6.44,3.29-11.44,9.33-5,6.05-7.76,7.89-9.33,9.07-1.58,1.18-4.08,2.1-5.65,3.55-1.58,1.45-3.68,4.34-5.65,4.34s-9.2,1.31-11.44,2.37c-2.23,1.05-11.17,6.7-13.28,8.54-2.1,1.84-8.41,6.84-9.2,7.1-.79.26-4.07.53-1.97-1.31,2.1-1.84,6.97-5.65,9.86-8.02,2.89-2.37,10.27-6.31,10.13-7.1-.14-.79.91-2.1-1.85-2.1s-6.84.39-6.84.39c0,0-2.63-.39.66-1.31,3.29-.92,5.65-1.71,9.07-1.71s6.97-.39,11.83-1.05c4.86-.66,10.65-4.08,12.62-5.13,1.97-1.05,5.39-3.68,6.31-5.13.92-1.45,2.5-4.21,2.5-4.21,0,0,.66-1.18-1.97-.39-2.63.79-5.92,2.63-9.73,3.02-3.81.39-5.92,1.18-7.23,1.71-1.31.53-1.58,1.18-2.89.53-1.31-.66-3.81-1.31-5.26-1.31s-4.47-.66-5.78-.53c-1.31.13-3.02.53-3.94,0-.92-.53-1.05-.39-3.02-.39s-3.55.66-4.47-.66c-.92-1.31-.39-1.05-1.71-1.71-1.31-.66-2.5-2.05-.79-2.67,1.71-.62,2.5-1.09,4.47,0,1.97,1.09,5.67,1.75,8.03,1.75h6.69c4.08,0,4.86.66,7.23.66s3.94-.39,7.49-1.18c3.55-.79,10.52-3.29,14.59-5,4.08-1.71,11.96-4.99,13.41-5.78,1.45-.79,2.63-1.84,3.29-1.84s1.05,1.45,3.29.53c2.23-.92,5.13-2.37,7.23-4.21,2.1-1.84,5.39-3.81,7.36-5.78,1.97-1.97,3.29-6.18,1.84-6.84-1.45-.66-2.76-2.89-5.92-2.89s-11.31.39-13.8.53c-2.5.13-11.57.26-14.07,1.18-2.5.92-14.72,4.34-17.88,6.05-3.16,1.71-7.62,3.94-9.86,5.78-2.24,1.84-5.92,3.29-7.49,5.13-1.58,1.84-1.82,3.55-3.41,4.34-1.59.79-3.43,1.84-4.35,1.84s-1.45.66-.26-1.45c1.18-2.1,2.76-3.29,2.76-3.81s0-.92-1.97.13c-1.97,1.05-7.36,3.02-8.15,3.02s-2.63.92-3.02,0c-.39-.92-.13-1.58.92-2.24,1.05-.66,1.05-.13,7.62-3.02,6.57-2.89,10.25-4.6,11.7-5.26,1.45-.66,7.23-5,9.07-5.78,1.84-.79,3.25-1.58,5.37-2.5,2.12-.92,6.07-1.58,9.35-3.02,3.29-1.45,6.18-2.76,11.17-2.76s13.93-1.84,16.43-1.84,11.7-.39,16.96-.39,12.09-1.05,14.33-1.84c2.23-.79,6.84-2.63,8.54-4.08,1.71-1.45,5.44-4.08,7.45-4.08"/>
        <path class="cls-2" d="M185.65,74.65s-.09-.26-3.38,0c-3.29.26-5.65-.53-8.68,0-3.02.53-9.2-.53-10.91.92-1.71,1.45-.79,3.94,0,4.73.79.79,2.76,2.76,6.18,3.42,3.42.66,3.16,1.71,6.84,2.1,3.68.39,9.38.79,9.95,1.58.57.79.96,2.24.7,3.94-.26,1.71-.26,2.63-2.76,2.63s-1.97-.26-6.05-.53c-4.08-.26-8.54-1.31-11.04-1.31s-6.31.13-7.23,2.5c-.92,2.37-.26,5.52-3.29,5.52s-6.44,1.05-8.81.66c-2.37-.39-5.78-1.58-6.84-3.16-1.05-1.58-3.55-6.31-6.31-8.94-2.76-2.63-4.6-4.21-8.28-4.21s-8.54-.13-11.96-1.45c-3.42-1.31-10.55-3.42-12.38-4.21-1.82-.79-7.47-3.29-8.52-3.55-1.05-.26-3.29-1.84-5.78-2.5-2.5-.66-4.19-2.5-5.25-2.5s-3.03.13-.66,1.84c2.37,1.71,3.94,2.76,6.18,3.15,2.23.39,4.21,2.1,4.86,3.15.66,1.05,2.1,3.68.79,4.86-1.31,1.18-1.05,1.45-3.15,1.45s-4.34.92-6.7-.13c-2.37-1.05-4.34-1.97-5.26-3.42-.92-1.45-1.32-3.68-2.56-4.86-1.25-1.18-3.48-1.71-5.45-2.37s-4.08-1.58-4.73-.92c-.66.66-.92,2.76,1.84,2.76s5.13,0,5.65.66c.53.66,2.23,1.97,2.69,3.42.46,1.45,2.3,5.78,5.32,6.31,3.02.53,6.18,1.31,8.68,1.31s9.86,1.18,11.44,1.18,6.7-.39,9.33-.39,3.68,1.32,6.18,1.71c2.5.39,5.26.79,8.41.79s4.23.79,5.8,1.58c1.57.79,3.01,2.23,1.7,5,0,0-.63,1.84-1.7,2.23-1.06.39-1.72.26-3.03,2.23-1.31,1.97-2.37,3.42-4.34,3.42s-2.5-1.18-4.21,0c-1.71,1.18-2.1.26-3.29,1.18-1.18.92-1.84,1.32-3.02,1.71-1.18.39-1.97,1.18-3.94,1.18s-5,.66-6.57,1.71c-1.58,1.05-3.42,1.31-4.73,1.05-1.31-.26-1.84-.79-3.81-.79s-6.18-.92-7.36-.92-2.1.53-5-1.45c-2.89-1.97-3.61-1.84-3.61-3.12s.49-1.48.49-3.06-.59-2.56-1.18-1.48c-.59,1.08-1.08,3.35-2.37,3.45-1.28.1-2.37-1.08-3.45-1.08s-3.15.2-1.08,1.08,4.24.99,4.93,2.36c.69,1.38.39,5.05,1.48,5.09,1.08.04,2.76-.65,4.04.53,1.28,1.18,1.16.89,1.42,2.56.26,1.68.45,3.25,2.03,3.75,1.58.49,4.83-.49,6.9-1.18,2.07-.69,4.04-1.38,7.99-1.38s7.2-.89,10.75-.89,6.41.39,6.41.39c0,0,1.58-.1,1.68,1.58.1,1.68,0,2.86,3.15,3.35,3.16.49,7.2.1,8.77,0,1.58-.1,5.92-4.04,7.49-5.03,1.58-.99,1.58-1.08,4.24-.89,2.66.2,3.65,1.48,6.21,1.68,2.56.2,5.13.99,5.13.99,0,0-6.51,2.06-7.59,3.5-1.08,1.43-2.27,2.32-4.24,2.81-1.97.49-4.04.69-5.92,3.06-1.87,2.36-2.47,1.68-3.85,3.06-1.38,1.38-2.46,3.06-3.94,3.75-1.48.69-1.77.79-3.15,2.86-1.38,2.07-2.66,3.75-4.44,3.84-1.77.1-4.83.69-7.1,1.28-2.27.59-12.52,2.47-14.2,3.25-1.68.79-4.63,1.68-6.21,2.86-1.58,1.18-5.03,4.04-6.51,2.27-1.48-1.78-2.46-3.85-5.03-3.55-2.56.3-5.52,1.97-8.77,1.97s-4.54,0-6.01-.39c-1.48-.39-2.66-1.08-3.45.79-.79,1.87-.49,3.45,0,4.83.49,1.38.51,3.06-.49,4.34-.99,1.28-5.13,2.66-5.63,4.14-.49,1.48-.39,3.45,1.87,2.46,2.27-.99,5.23-4.93,7.98-5.42,2.76-.49,5.13-1.28,7.2,0,2.07,1.28,4.04,3.55,1.28,7.3-2.76,3.75-6.21,9.07-7.2,9.96-.99.89-2.46.59-4.63,2.96s-4.04,4.13-4.04,4.13"/>
        <path class="cls-2" d="M72.84,187.01c.72-1.29,1.39-2.61,1.94-3.98.73-1.78,1.12-3.67,1.78-5.47.43-1.17,1.14-3.6,2.72-3.6.3,0,.55.23.71.48.24.38.39.84.77,1.12.68.5,2.31-.4,2.12,1.11-.11.88-.91,1.69-1.53,2.24-.93.82-2.04,1.43-2.91,2.33-1.33,1.39-2.21,3.35-3.24,4.97"/>
        <path class="cls-2" d="M92.55,183.71s.3-3.34,1.97-4.82c1.68-1.48,5.82-4.54,8.18-6.11,2.37-1.58,8.08-7,9.86-8.48,1.77-1.48,5.72-7.59,6.7-9.56.99-1.97,2.37-4.24,4.83-6.7,2.47-2.46,4.04-6.51,7.89-8.38,3.85-1.87,5.42-2.17,6.51-3.25,1.08-1.08.1-2.17,2.86-3.55,2.76-1.38,3.85-.59,6.11-1.68,2.27-1.08,3.75-3.25,5.03-5.03,1.28-1.77,2.96-4.04,5.62-4.04s6.51,1.38,8.68.99,4.53-1.97,5.52-2.86c.99-.89,3.25-3.06,3.15-1.18-.1,1.87-1.87,2.07-2.96,3.94-1.08,1.87-1.28,8.08-1.28,9.66s.3,2.17,1.08,2.07c.79-.1,1.38-1.87,1.38-5.13s.79-6.8,1.78-7.79c.98-.99,1.18-1.77,3.05-1.77s2.07.49,3.75-1.28c1.68-1.77,3.2-3.45,3.38-3.45"/>
        <path class="cls-2" d="M161.47,183.71s-1.38-1.57,0-3.14c1.38-1.58,1.97-4.54,3.55-6.9,1.58-2.37,2.47-4.93,2.17-6.31-.3-1.38-.79-2.56-1.87-2.56s-4.24-.2-5.32,0c-1.08.2-2.37-1.28-2.86-2.37-.49-1.08-1.28-3.16-2.66-3.16s-2.46-.2-3.65,0c-1.18.2-1.87.32-2.76-.09-.89-.41-.49-1.49-1.48-1.49s-2.17.39-2.17-.99.2-2.56,1.58-3.55c1.38-.99,3.94-2.07,5.32-2.56,1.38-.49,4.69-1.38,4.51-3.75-.18-2.37,1.36-3.85,0-5.23-1.36-1.38-2.05-1.08-2.94-3.25s-.69-2.96-3.16-4.04c-2.46-1.08-2.37-1.08-3.84-1.08s-3.24-.94-3.24-.94"/>
        <path class="cls-2" d="M9.44,183.71s.39-6.5,1.77-9.16c1.38-2.66,2.37-3.45,4.14-7.1,1.77-3.65,2.96-6.21,4.73-8.18,1.77-1.97,4.73-8.58,5.52-11.04s1.48-7.2,1.58-8.68c.1-1.48-.1-3.15-.49-4.34-.39-1.18-2.96-3.84-2.96-4.73s-.49-1.68.79-1.48c1.28.2,2.76.49,3.94-1.08,1.18-1.58,1.87-10.75,1.77-12.42-.1-1.68-1.38-4.44-1.38-5.82s.79-3.55,2.07-6.51c1.28-2.96,3.16-6.41,4.54-7.1,1.38-.69,3.15-1.97,5.32-2.07,2.17-.1,6.9-1.18,8.28-2.37,1.38-1.18,3.94-6.01,4.54-8.18.59-2.17.3-5.92,0-6.7-.3-.79-1.77-2.96-2.56-3.65-.79-.69-2.86-.56-2.86-2.79s-.89-3.71-2.46-4.9c-1.58-1.18-2.27-1.97-2.86-2.37-.59-.39-2.17-.99-3.45-.89-1.28.1-3.65,1.08-3.55,1.97.1.89.2,1.87.1,3.75-.1,1.87-.69,3.94-1.48,5.13-.79,1.18-2.96,3.45-3.55,4.44-.59.99-1.97,6.41-2.17,7.99-.2,1.58-1.38,5.37-3.15,6.55-1.77,1.18-5.03,1.97-7.2,1.68-2.88-.39-8.22-2.83-6.31-6.65.89-1.77,1.97-4.73,3.25-5.62s1.97-1.18,4.63-.99c2.66.2,4.83-.89,5.52-1.68.69-.79,1.68-2.27,3.15-3.06,1.48-.79,2.17-2.07,2.17-3.85s-.1-6.51-.1-8.38-.2-3.4-1.08-5.59c-.89-2.2-1.68-1.6-1.68-4.07s0-4.31-.2-5.21c-.2-.9-.2-.8-1.48-1.2-1.28-.39-1.68-.69-2.76-1.78-1.08-1.08-2.17-2.17-2.86-2.76-.69-.59-.79-.49.2-1.87.99-1.38,1.08-2.27,1.08-2.96,0-1.46,1.77-1.38,2.79-1.28,2.03.19,4.03.61,6.04.97.63.11,2.24.47,1.77,1.44-.47.98-1.03,1.98-.86,3.11.22,1.48,1.11,3.94,1.6,4.73.49.79,0,2.56.59,4.04s.89,3.55,3.65,4.04c2.76.49,4.24,1.48,6.31,1.48s3.16.39,4.93.69c1.77.3,2.96.1,3.65,1.87.69,1.77,1.37,3.85,1.52,5.32.15,1.48,1.14,2.86,2.32,2.27,1.18-.59,1.68-.2,1.87-2.17.2-1.97.69-2.17,1.28-3.45.59-1.28.69-2.17,1.68-4.04.99-1.87,1.58-3.16,1.58-4.73s-.49-2.17,0-3.35c.49-1.18,1.08-1.08.59-2.46-.49-1.38-1.08-1.58-1.18-2.86-.1-1.28-.79-2.56-1.77-3.55-.99-.99-.39-2.96-1.08-4.34-.69-1.38-1.18-3.06-2.86-2.96-1.68.1-2.17-.3-3.45.99-1.28,1.28-2.37,2.96-3.25,4.24-.89,1.28-1.68,2.17-2.96,3.45-1.28,1.28-.69,1.48-2.66,2.27-1.97.79-3.84.99-3.84,2.96s0,3.65,2.37,3.85c2.36.2,4.44.3,6.7.69,2.27.39,1.87-.3,4.68,1.48,2.81,1.77,3.31,2.37,3.31,3.55s.89,2.86,2.91,2.9"/>
        <path class="cls-2" d="M40.79,94.01s-1.62,2.89.2,3.01c1.7.11,1.35-1.33,3.35-.88,2.27.5,4.34.55,6.9,0,2.56-.56,4.63-3.22,5.72-4.1,1.08-.89,2.27-1.28,3.25-3.06.99-1.77.69-3.85.39-5.32-.3-1.48-2.86-4.44-3.06-5.62-.2-1.18-1.08-2.07-.99-5.03.1-2.96.59-4.85,1.77-6.17,1.18-1.32,2.56-1.42,4.24-3.89,1.68-2.46,1.28-3.94,2.56-6.01,1.28-2.07,2.17-3.84,2.56-5.72.39-1.87,2.37-4.73,2.37-5.23s.39-2.36-1.87-3.94c-2.27-1.58-5.05-1.38-4.74-4.04.31-2.66,1-2.96,1-5.82s-.02-5.92-1-7.49c-.97-1.58-4.42-7.49-5.71-9.56-1.28-2.07-2.47-3.75-3.16-4.63-.69-.89-1.77-2.46-1.77-2.46,0,0-.2-1.48-1.97-3.16-1.77-1.68-2.76-3.65-4.14-5.13-1.38-1.48-2.37-3.94-3.85-6.21-1.48-2.27-1.46-2.27-2.7-3.55-1.24-1.28-1.34-2.46-.95-4.24.39-1.77,2.46-5.13,3.55-6.51,1.08-1.38,1.87-6.7,2.76-8.68s.62-2.86,2.04-3.55,2.99-.49,2.99-2.56-.3-2.96-.99-4.04c-.69-1.08-2.96-2.27-3.15-4.14-.2-1.87,0-3.55-1.68-4.44s-2.76-1.08-3.85-2.37c-1.08-1.28-2.46-1.18-2.46-4.14s.49-3.09-.39-4.85c-.89-1.76-1.48-2.15-1.97-3.24-.49-1.08-1.28-2.27-1.18-4.63.1-2.37.79-5.23-.99-6.8-1.77-1.58-5.03-1.28-6.11-2.56-1.08-1.28-1.97-1.48-1.97-3.65s.1-2.96-1.97-3.55c-2.07-.59-4.44-.69-5.03-1.68-.59-.99.2-1.81,0-3.25-.2-1.45-1.77-1.18-1.51-3.68.26-2.5.92-5.13.66-5.78-.26-.66.26-1.71-2.37-1.45-2.63.26-4.47-.26-5.78.79-1.31,1.05-1.05,1.05-2.37,1.05s-.79-1.4-2.5-1.88c-1.71-.48-4.6-1.4-6.7-1.8-2.1-.39-4.47-1.18-5.26-2.63-.79-1.45-1.58-2.63-1.58-3.68v-2.31"/>
        <path class="cls-2" d="M47.66-110.25s-.66.08-2.1.87c-1.45.79-.39.53-2.23.92-1.84.39,0-.13-1.84.39-1.84.53-3.55-.95-4.34.32-.79,1.26-.66,1.79-2.1,3.23-1.45,1.45-2.01,3.68-4.29,3.68s-3.46-1.84-4.78,0c-1.31,1.84-1.31,2.5-.66,3.29.66.79.66,0,.26,2.89-.39,2.89-2.05,4.21-.69,5.26,1.35,1.05,3.02,1.71,5.87,3.81,2.85,2.1,3.77,4.08,6.13,4.86,2.37.79,3.55,2.1,3.29,3.81-.26,1.71-.79,2.63.13,4.34.92,1.71,1.84,3.42,1.45,5.26-.39,1.84-1.05,2.1-.39,3.94.66,1.84.66,2.07.66,3.86s-.26,3.11,1.58,5.34c1.84,2.23,2.37,4.08,4.08,5.39,1.71,1.31,2.37,1.58,3.68,4.34,1.31,2.76,4.21,6.18,2.5,9.86-1.71,3.68-4.21,5.13-4.6,7.62-.39,2.5-1.45,3.16-1.45,5.52s-1.18,6.7,1.05,8.94c2.24,2.23,5.13,2.63,5.52,5.13.39,2.5-1.45,5.63,0,8.6,1.45,2.97,7.36,7.31,8.28,9.54.92,2.23,2.76,5.39,2.89,8.81.13,3.42,2.5,3.16,2.89,5.78.39,2.63-.92,3.15,0,7.42.92,4.28,0,5.59,2.37,6.51,2.37.92,5.39-.72,6.7-1.28,1.31-.56,3.04-.43,4.22-2.79,1.17-2.37,1.57-5,3.28-7.62,1.71-2.63,1.58-2.89,3.68-4.21,2.1-1.31,3.42-4.6,3.42-4.6"/>
        <path class="cls-2" d="M-5.31,183.71v-6.66c0-3.02-.66-7.23.79-10.25,1.45-3.02,1.45-5,3.68-6.97,2.24-1.97,2.37-3.94,4.08-5.39,1.71-1.45,3.16-2.76,4.34-4.73,1.18-1.97,3.81-4.6,3.81-7.23s-.39-4.73.92-6.97c1.31-2.23,4.6-5.96,1.31-8.5-3.29-2.54-6.7-5.7-6.97-7.67-.26-1.97-.79-3.42-3.16-5-2.37-1.58-2.23-1.05-3.68-2.89-1.45-1.84-1.31-2.76-1.97-4.47-.66-1.71-1.71-3.29-1.71-6.18s1.05-3.81,2.1-6.31c1.05-2.5,1.31-4.21,1.97-5.92s.66-3.42,2.37-2.76,2.37,2.63,3.81,2.63,3.55,1.05,4.21,2.89c.66,1.84,1.06,4.44,4.44,3.55,3.38-.89,8.71-.22,10.55,2.39,1.84,2.6,2.76,4.18,2.76,6.81s.53,5.59.53,5.59"/>
        <path class="cls-2" d="M185.65-4.09c-8.06,6.11-16.59,5.92-21.71,6.9-5.13.99-9.07,3.75-11.63,5.72-2.56,1.97-11.04,5.92-14.79,6.9-3.75.99-8.28,3.16-11.44,5.13-3.16,1.97-6.31,5.32-7.89,6.51-1.58,1.18-11.63,5.13-14.39,6.31-2.76,1.18-2.37,2.56-2.37,2.56,0,0,1.45.85,3.55,0,2.1-.85,4.86-2.3,6.44-2.3s8.81-3.42,11.04-4.86c2.23-1.45,4.47-3.68,13.28-6.57,8.81-2.89,19.19-5.21,21.29-6.09,2.1-.88,9.33-6.01,16.3-7.32,6.97-1.31,15.77-6.18,17.22-7.1"/>
        <path class="cls-2" d="M-22.21,96.08s2.83,3.94,4.54,4.6c1.71.66,6.05,1.71,7.89-2.3,1.84-4.01,3.81-8.35,4.86-10.98,1.05-2.63-.26-1.84,1.05-4.34,1.31-2.5,1.05-5.39,1.97-7.49.92-2.1-.79-3.29,2.76-3.42,3.55-.13,5.52-.26,6.18-1.18.66-.92.92-2.37,0-3.29-.92-.92-1.97-1.71-1.97-3.15s1.05-2.37-.26-3.16c-1.31-.79-2.63-.26-3.29-2.37-.66-2.1.79-3.68-1.84-5.26-2.63-1.58-4.9-.79-5.14-2.89-.25-2.1-.77-2.89.94-3.55,1.71-.66,3.29-2.76,2.37-4.08-.92-1.31-1.48-1.84-3.3-1.84s-6.16,2.23-6.29,0c-.13-2.23,1.18-3.02,2.23-3.94,1.05-.92,1.45-1.18.26-3.16-1.18-1.97-1.71-4.21-1.31-5.13.39-.92,2.11-.39,3.29,0,1.18.39,2.63,1.31,4.6.79,1.97-.53.26-.26,4.08-.53,3.81-.26,5.13-2.63,6.25-3.15,1.11-.53,1.24-1.71,3.09,0,0,0,.72-3.42-1.28-5.26-2.01-1.84-2.01-2.1-4.5-1.71-2.5.39-2.63,1.45-4.73.53-2.1-.92-2.89-1.5-4.73-.68-1.84.82-1.58,2.53-4.08,2.53s-5.13-2.89-6.7-1.84c-1.58,1.05-2.5,1.97-2.5,4.6s.79,4.47-.26,6.18c-1.05,1.71-3.16,3.29-1.71,4.86,1.45,1.58,1.71,1.71,1.71,3.81s-1.71,3.16-.13,5.78,3.29,5.26,4.86,6.31c1.58,1.05,5.35,4.21,7.87,5.92,2.52,1.71,6.98,4.07,6.98,6.57s.26,5.13-1.58,5.92c-1.84.79-3.02.66-4.47,2.89-1.45,2.23-1.01,2.89-2.74,5.26-1.73,2.37-4.23,3.94-5.8,1.31-1.58-2.63-1.31-3.81-2.24-6.31-.92-2.5-4.34-7.1-6.9-7.23"/>
        <path class="cls-2" d="M28.74,108.9s-.76,6.38-4.87,6.98c-4.11.6-5.72,1.13-8.19,1.55-2.47.42-5.66-.19-7.67-3.77-2.01-3.58-5.48-10.07-4.02-11.67s1.68-2.14,5.45-1.41c3.77.73,8.71.18,10.44-2.1,1.74-2.28-.27-3.66-5.85-4.57,0,0-2.29-.64-3.89-3.93-1.6-3.29-2.22-1.06-4.64-2.48-2.42-1.43-1.69-1.94-3.66-1.83s-2.52,2.03-2.16,6.14c.36,4.11-1.55,2.65-1.01,6.58.55,3.93.62,4.91-.1,7.4-.72,2.49.66,5.87,3.11,7.44,2.45,1.58,6.22,2.97,6.95,5.9.73,2.92-.11,3.51,4.97,7.88"/>
        <path class="cls-2" d="M-23.71,18.76s2.81-4.48,7.68-4.98c4.87-.5,5.21-2.69,7.89-2.85,2.69-.17,3.24.36,6.45,3.92,3.21,3.55,2.73,4.18,7.21,4.45"/>
        <path class="cls-2" d="M10.77,26s-.04.4-.17.91c-.55,2.23-1.54,8.16,4.39,9.09,7.3,1.14,7.19,1.17,7.19,1.17"/>
        <path class="cls-2" d="M53.42,8.89s-1.55,5.07-8.29,4.83c-6.74-.25-4.8-.58-5.89-1.65-1.1-1.07-1.51-3.38-5.19-2.47-3.68.91-1.25,4.65.68,5.5,1.93.84-1.4,5.3,2.42,7.21,3.83,1.91,15.28,6.23,13.26,10.92-2.02,4.69-2.79,6.79-6.67,7.65-3.87.86-3.44,2.15-7.3,1.32-3.86-.83-2.26,1.88-.9,3.98s.87,8.29,7.23,8.28c6.36,0,9.94.84,11.05,3.38,1.11,2.54,2.41,3.03,2.01,4.76-.4,1.73-.44,3.42,0,3.75"/>
        <path class="cls-2" d="M74.04,167.17s-3.98-1.83-7.33,1.52c-3.35,3.35-5.82,3.98-9.49,3.91-1.95-.04-3.86.46-5.45,1.61-.9.65-1.66,1.45-2.32,2.34-1.03,1.38-1.13,2.21-2.91,2.7-2.18.6-4.39,1.12-6.49,1.95-2.18.86-4.89,1.99-6.18,4.08-.5.82-.84,1.74-1.05,2.68-.37,1.57.24,3.29-.36,4.82-1.22,3.04-5.59,2.08-6.72,5.29-.88,2.5.51,5.53,3.13,6.21"/>
        <path class="cls-2" d="M48.43,154.25s.02,5.21-4.16,5.91c-4.17.7-7.9,1.3-7.82,4.61.07,3.31,5.42,5.37,9.18,3.69,3.76-1.69,10.22-5.06,10.22-5.06"/>
        <path class="cls-2" d="M138.09,136.75c1.52-.64,3.16-1.1,4.8-1.28,1.19-.13,2.47-.13,3.59.34,1.53.64,2.08,2.08,2.43,3.58.89,3.78,1.61,9.27-.91,12.62"/>
        <path class="cls-2" d="M186.72,96.24c-1.84,0-3.09.89-3.39,2.97-.3,2.08-2.67,2.97-10.04,2.43-7.36-.53-6.1.86-9.71,1.06-3.61.19-5.44-.76-11.51.65-6.08,1.41-4.1.28-11.17-.65-7.07-.94-6.79,4.05-8.34,5.54-1.55,1.5-3.11.34-5.37,2.61-2.26,2.27-10.43,5.31-10.43,5.31,0,0-1.63,2.69-4.4,3.8-2.78,1.11-5.17,1.88-6.46,2.82-1.29.94-8.04,0-12.95,0s-7.45,1.64-10.05,2.35c-2.6.7-10.94,2.8-18.34-2.85-1.32-1.01-2.62-2.11-3.66-3.42-.47-.59-.79-1.33-1.3-1.88-.86-.92-2.24-.83-3.39-.86-1.45-.04-2.16-.33-3.17-1.32-.53-.52-1-1.13-1.5-1.69-.17-.19-.35-.39-.59-.47-.25-.09-.52-.04-.78.01-1.66.31-3.46.5-4.97-.27-.67-.34-1.33-.89-2.09-.79-.95.12-1.48,1.29-1.22,2.21.26.92,1.06,1.58,1.89,2.05,3.78,2.11,8.9,1.91,10.97,6.44,1.51,3.31,4,6.15,7.04,8.15,2.99,1.96,6.39,2.72,9.84,3.4,1.84.36,3.06,4.82,1.92,6.4-.86,1.19-3.35,1.16-4.62,1.12-1.61-.04-3.84-.21-4.3-2.11-.35-1.48.61-6.79-2.55-5.41-1.73.76-3.74.73-5.44-.1-1.78-.86-2.68-2.34-3.54-4.04-1.67-3.32-3.59-6.34-7.25-7.69-.04-.02-.09-.03-.13-.05-1.52-.54-2.99-1.22-4.52-1.73-.92-.31-1.93-.7-2.92-.54-.98.15-1.65.28-2.17-.79-.25-.52-.34-1.1-.5-1.66-.37-1.27-2.02-2.76-2.87-.98-1.1,2.29-1.33,7.46-3.27,8.03"/>
        <path class="cls-2" d="M48.19,70.31s-2.91-5.73-6.64-6.11c-3.74-.38-4.98,2.61-5.09,7.06-.07,2.67-1.84,3.95-2.81,6.24-1.55,3.66.1,7.64-.81,11.4-.74,3.04-2.71,5.96-5.55,7.37-1.66.82-5.66,1.76-7.03-.03"/>
        <path class="cls-2" d="M141.28,98.59s.67-3.55,4.91-4.19c4.24-.64,4.7-3.04,4.7-4.15s1.93-3.69,5.07-3.87c3.13-.18,6.9-4.71,6.72-6.09"/>
        <path class="cls-2" d="M-24.85,16.11s1.9-5.77,6.06-6.39c4.17-.61,3.19-3.03,6.98-2.56,3.8.47,8.45,1.94,14.95,5.99,6.49,4.04,8.94,3.46,11.27,2.96,2.33-.51,3.57.47,5.83,1.82,2.26,1.35,2.13-2.82,6.18-.98,4.04,1.84,8.79,1.81,8.79,1.81"/>
        <path class="cls-2" d="M-.79,10.9s4.68-1.42,6.31-3.22c1.62-1.8,2.47-1.8,6.43-1.8s6.01-4.13,6.61,1.3c.6,5.43,5.47,6.51,10.31,7.47,4.83.96,5.87.46,5.87.46"/>
        <path class="cls-2" d="M-26.48-5.09s3.95,2.76,6.55,3.26c2.6.5,2.48-.37,4.83,0,2.36.37-.25,2.9,1.61,3.06,1.86.16,2.85.58,7.31,0C-1.7.64,3.13.52,1.02,2.63c-1.84,1.84-4.34,1.51-6.7,1.74-3.84.37-6.13,2.8-6.13,2.8"/>
        <path class="cls-2" d="M10.77,26s.92,4.2,4.17,4.44c2.15.16,4.36-2.05,6.2-2.9.9-.41,2.03-.88,3.01-.45,1.91.83.89,2.63.21,3.95-1.6,3.13-1.96,4.41-2.18,5.69"/>
        <path class="cls-2" d="M1.85,85.68s-.22-3.28,3.33-3.28.79-4.63,4.26-5.68c3.47-1.04,7.08-2.64,8.56-3.86,1.48-1.22,3.42-4.81,3.27-8.69-.15-3.89.75-9.56-2.54-11.36-3.29-1.79-5.56-2.09-5.17-4.93.39-2.84-2.24-5.98-3.39-7.02-1.15-1.05-3.84-2.99-2.65,0,1.2,2.99,3.29,4.78,4.04,6.42.75,1.64,1.34,1.94,3.44,6.28,2.09,4.33,3.16,4.31,3,8.43-.16,4.12-1.1,6.4-1.83,8.32-.73,1.92-1.92,2.22-2.61,3.72-.69,1.49-8.88,2.54-11.12,4.48-2.24,1.94-3.77,3.69-4.05,7.15-.28,3.46-.94,5.81-2.52,9.14-1.58,3.33-2.46,4.36-2.46,4.36"/>
        <path class="cls-2" d="M-3.65,102.95c-1.69,2.62-3.16,5.37-4.45,8.21-1.4,3.1-2.62,6.36-2.58,9.81.03,2.35.25,5.25,1.99,7.1,2.36,2.52,5.89,2.69,9.11,2.42,1.78-.15,3.48-.93,5.24-1.23.72-.12,2.68-.49,3.26.11,2.5,2.57-9.28,3.07-10.29,3.14-1.49.11-4.56-.51-5.13,1.45-.2.68-.06,1.4.08,2.09.69,3.49,1.4,5.85.31,9.36-.58,1.88-3.46-1.84-3.86-2.35-1.05-1.32-3.33-5.99-5.43-4.55-1.63,1.12-2.27,3.32-1.53,5.14.31.76.72,1.49.82,2.3.2,1.72-.4,3.14.45,4.78.65,1.25,1.85,1.94,1.68,3.51-.24,2.19-.71,4.21.95,5.28,1.66,1.07,1.07,2.25,3.8,3.68,2.73,1.42,4.7,2.96,4.33,4.54"/>
        <path class="cls-2" d="M10.21,177.79c3.3-1.95,4.37-5.8,7.33-8.12,2.34-1.84,6.2-3.83,6.89-7.01.88-4.04,1.23-3.32,3.34-4.65,2.11-1.33,3.34-2.77,4.04-6.01.7-3.24.56-3.24,2.39-5.88,1.83-2.64,2.36-4.57.78-6.33-1.44-1.6-2.34-4.29-1.44-6.4.81-1.9,3.34-4.4,5.3-2.74,2.29,1.93.7,4.74,4.92,4.74,4.22,0,5.8-.37,7.56,2.02,1.76,2.38,5.45,3.97,3.34,8.01-.9,1.72-2.09,3.26-3.33,4.76-.91,1.11-2.76,2.56-2.93,4.07"/>
        <path class="cls-2" d="M32.76,148.46c-2.12.82-4.26,1.93-5.7,3.74-1.57,1.97-2.28,4.44-3.35,6.68-1.62,3.38-3.35,7.37-6.78,9.3-2.76,1.54-3.82,6.93-3.82,6.93"/>
        <path class="cls-2" d="M50.72,175.1s-3.95,3.79-1.73,9.36"/>
        <path class="cls-2" d="M70.46,158.68s2.31-.08,3.59-2.81c1.27-2.73,4.07-4.86,6.65-4.71,4.61.26,2.14,7.59,7.07,6.41,3.09-.74,6.15-1.56,9.34-.98,2.14.39,4.33,1.2,6.45.25,1.32-.58,2.51-1.62,3.71-2.42,1.57-1.04,3.82-3.16,5.89-2.75,6.56,1.32-3.06,10.47-4.7,11.94-2.13,1.91-5.67,3.98-8.32,3.98-1.66,0-3.63-.25-5.13.63-1.54.9-1.65,2.85-1.76,4.43-.14,2.04-.62,3.6-2.1,5.14-2.36,2.46-3.9,4.45-6.04,8.43"/>
        <path class="cls-2" d="M86.59,150.76s.81,3.22,4.92,1.24c4.11-1.97,5.29-1.97,8.67-1.7,3.38.27,6.93-.11,9.67-1.56,2.74-1.45.64-3.62,6.02-5.04,5.38-1.43,6.2-3.98,9.31-4.26,3.1-.27,4.75-6.83,4.16-7.52"/>
        <path class="cls-2" d="M72.84,134.73s4.54-1.85,7.93-1.47c3.39.38,5.77-1.63,9.67-2.38,3.7-.72,7.41-.85,11.17-.76,2.47.07,7.4-.48,9.67-1.73,1.21-.67,1.91-2.18,1.3-3.54-.84-1.89-2.6-1.06-4.1-1.76-.08-.04-1.48-.94-1.24-1.05"/>
        <path class="cls-2" d="M106.78,185.47s-6.88-2.71-.73-7.68c6.15-4.98,8.49-1.32,13.32-6.15,4.83-4.83,9.08-7.76,11.57-6.74,2.49,1.02,2.78,3.51.88,6.3-1.9,2.78-5.71,6.18-4.69,8.58,1.02,2.4,5.48,4.89,11.97,2.99,6.48-1.9,8.42-1.03,4.82,2.71"/>
        <path class="cls-2" d="M165.02,173.67s1.08-2.38-2.33-2.4c-5.65-.02-3.27-2-9.24-.57-5.97,1.43-11.5,5.43-12.17.14-.66-5.29,2.19-6.86-1.24-9.86-3.43-3-10.43-4.52-7.15-8.34,3.29-3.81,4.86-4.24,4.15-7.96-.72-3.71-1.61-6.26-.08-7.28"/>
        <path class="cls-2" d="M186.72,107.25c-.81,0-2.03-.4-2.64.34-.26.32-.34.74-.5,1.11-.47,1.05-2.05.86-2.62,1.86-.33.58-.46.81-.99,1.18-.76.53-.58.54-.74,1.53-.14.85-1.08.9-1.52,1.51-.48.66.21,1.54-.2,2.17-.43.67-1.46.65-2.15.68-.95.04-1.85.23-2.79.3-1.08.08-2.01-.46-3.06-.57-.56-.06-.71.02-1.2-.31-.35-.23-.47-.69-.98-.64-.87.09-.88,1.01-1.11,1.68-.16.5-1.01-.03-1.22-.22-.53-.51-.36-1.01-.53-1.69-.24-.97-.67-1.45-1.79-1.38-1.25.07-.78.87-1.51,1.4-.55.4-1.77.59-2.43.82-.97.35-1.93.57-2.95.79-1.25.27-1.67,2.01-3,1.96-.28,0-1.07-.2-1.3-.09-.4.2-.8,1.24-1.04,1.62-.77,1.22-1.04,1.03-2.39,1.1-.92.05-2.2.44-2.58,1.36-.34.84.13,1.94.09,2.81-.07,1.49-.83,2.9-2.16,3.62-.85.46-1.99.26-2.82.79-.53.34-.68.94-1.1,1.28-.56.45-1.24.03-1.79.43-.43.31-.19,1.18-.23,1.72-.11,1.48-.79,2.41-2.4,2.23-.86-.1-1.69-.61-2.27.37-.45.77-.58,1.76-.82,2.6"/>
        <path class="cls-2" d="M103.87,79.74s5.37-7.4,11.55-7.93c6.19-.53,6.36-2.81,8.82-6.32,2.46-3.51,3.02-3.86,6.25-4.91,3.23-1.05,11.62-4.74,12.16-4.92.55-.18,8.65-3.34,1.26-4.39-7.39-1.05-9.73-1.62-9.73-1.62"/>
        <path class="cls-2" d="M124.86,27.12s3.23,1.07,6.81,0c3.59-1.07,8.24-1.05,11.56,0,3.32,1.06,14.35.79,18.73-1.47,2.56-1.32,5.6-1.85,8.42-2.27,1.55-.24,7.1-1.47,8.27.03,1.66,2.13-3.14,3.22-4.2,3.31-3.06.27-12.36.66-16.48,3.99-4.38,3.53-9.93,5.06-15.19,6.78-3.9,1.27-12.6,3.51-12.3,9.01"/>
        <path class="cls-2" d="M119.43,26.02c1.19-2.23,2.67-4.31,4.39-6.15,1.84-1.97,3.95-3.28,6.11-4.84,2.71-1.95,5.22-4.26,8.02-6.07,1.81-1.17,3.88-1.82,5.88-2.61,4.07-1.6,7.58-4.1,11.28-6.36,1.83-1.12,6.59-3.65,4.97-6.46-1.42-2.45-5.38-1.32-9.25.57-4.84,2.36-10.12,3.43-15.16,5.27-4.54,1.66-9.36,2.6-14.19,1.86"/>
        <path class="cls-2" d="M157.94,46.49s1.02,2.21,3.91,2.08c2.89-.13,8.68-.09,10.89,1.08,2.21,1.17,2.47-.83,6.26,0,3.78.83,10.05,1.17,7.43,5.42-2.62,4.25-3.3,8.34-15.04,4.08,0,0-3.57-1.53-6.98.68-3.4,2.21-4.27,0-7.5,1.87-3.22,1.87-5.92,1.68-4.74,5.09,1.18,3.42,1.32,2.39-.28,5.46-1.01,1.94.04,4.19-1.88,5.72-.82.65-1.88.91-2.77,1.47-2.43,1.5-.75,3.78-4.53,2.77-2.05-.55-4.53-2.17-6.71-1.9-2.38.29-7.2,2.33-7.34,4.63"/>
        <path class="cls-2" d="M58.23,116.27s-4.5-3.74-2.91-8.03c1.59-4.28,2.61-1.58,6.2-1.91,3.43-.31,3.02-4.02,3.52-6.52.66-3.34,4.53-5.15,7.8-5.12,3.21.03,7.49,1.4,7.49-2.71,0-.96.05-1.92.1-2.88.02-.48-.09-1.02-.48-1.3-.21-.15-.48-.19-.73-.23-3.46-.44-11.77,4.16-12.58-1.55-.84-6,4.09-6.3,8.7-5.32"/>
        <path class="cls-2" d="M87.54,110.55c4.34-.59,2.59-5.59,4.13-8.34.96-1.71,2.39-1.42,3.84-2.37,1.77-1.15,2.23-3.24,3.52-4.78,2.47-2.94,6.92-2.39,10.33-2.87,1.96-.27,2.19-1.99,2.61-3.62"/>
        <path class="cls-2" d="M60.56,65.11s-.15,2.12,4.6,1.25c4.75-.87,6.88,1.09,10.17.44,3.29-.65,8.34.73,12.21,2.41,3.88,1.69,7.17-2.64,9.81-2.85,2.64-.21,8.31-2.72,8.97-5.1.66-2.37,1.14-4.75-2.47-5.67-3.6-.92-4.79,1.19-8.75,1.19s-9.9.79-13.99,1.85c-4.09,1.05-8.58,3.03-9.1-2.51-.27-2.79-.01-5.59.32-8.36.21-1.8.78-3.75.17-5.53-.62-1.83-2.63-3.03-4.3-1.63-.35.29-.81.94-1.33.71"/>
        <path class="cls-2" d="M90.91,51.38s-.52-.61,4.19-1.73c4.71-1.12,7.52-3.79,6.3-6.53-1.21-2.74-3.18-1.72-4.39-1.91-1.21-.19-4.01-1.4-2.35-3.69,1.65-2.29.47-3.06-.02-3.66-.49-.6-.57-1.53,1.65-2.79,2.23-1.26,4.36-5.46,4.08-7.76-.27-2.3-2.7-3.8-4.64-3.5-5,.77-5.51-5.27-6.06-8.21-1.14-6.14-4.5-5.23-6-8.75-1.5-3.52-8.34-10.73-8.34-10.73"/>
        <path class="cls-2" d="M108.11,81.12s2.38-3.07,8.19-2.27c5.81.8,18.83,2.12,18.23-4.05-.6-6.17-13.78-13.91-9.1-16.95,2.69-1.75,3.8.7,5.31,2.5,1.74,2.07,4.99,3.45,7.62,3.72,1.32.13,3.03-.2,4.02-1.17,1.05-1.03.22-2.72.92-3.88,1.03-1.71,3.49-1.15,5.19-1.02,2.22.16,11.53,2.33,10.87-2.19-.59-4.01-2.44-9.63-2.44-9.63"/>
        <path class="cls-2" d="M96.87-5.7s-.19,1.98,2.55,1.61c2.14-.29,3.85-1.55,5.83-2.29,2.86-1.06,6.8,2.22,5.59,5.52-.76,2.07-1.93,2.89-3.34,4.49"/>
        <path class="cls-2" d="M108.11,5.58c3.39-.55,7.52-2.07,10.79-.34.36.19.73.45.84.84.17.62-.36,1.19-.8,1.66-.55.59-1.01,1.26-1.37,1.99-.29.6-.51,1.32-.21,1.91.28.55.95.82,1.57.8.62-.02,1.2-.28,1.76-.55,3.08-1.46,6.2-3.18,8.75-5.47,2.49-2.24,4.81-3.89,8.23-4.31,3.46-.42,6.63-2.1,9.69-3.65,1.45-.74,2.91-1.45,4.38-2.13.7-.33,1.97-1.2,2.8-1.1,1.08.13,2.29,1.08,0,2.7-2.31,1.63-4.44,1.53-3.95,4.89"/>
        <path class="cls-2" d="M103.18,33.67s-2.25-.36.78-1.85c3.03-1.48,4.8-2.99,4.14-5.8-.66-2.81-1.82-4.14-1.32-5.93.41-1.44.4-3.54-1.42-3.95-1.97-.44-3.19,1.49-4.91-.3-1.4-1.46-3.33-3.55-2.9-5.76.27-1.37,1.33-2.43,1.65-3.8.37-1.56.23-3.31-.59-4.71-1.5-2.56-5.41-3.2-5.57-6.67"/>
        <path class="cls-2" d="M106.29,35.37c1.32-.49,3.53-1.07,3.82.81.21,1.37-1.7,3.44.95,3.1,1.12-.14,3.67-2.4,4.67-1.3,1.09,1.22-1.05,3.37-1.77,4.2-1.57,1.81-2.82,2.82-2.7,5.42.03.68.44,3.57-.55,3.77"/>
        <path class="cls-2" d="M78.7,37.63c-7.86-1.6-5.19-11.45-3.21-16.58,2.12-5.5-1.48-10.92-.32-16.44.61-2.92,1.54-6.03,2.91-8.69l.05-.69"/>
        <path class="cls-2" d="M51.39,11.78s-2.96.11-4.53-1.98c-1.57-2.09-1.57-2.5-3.7-2.63-.95-.06-2.47.49-3.21-.29-1.25-1.32.39-3.64-.1-5.06-.12-.35-.39-.64-.67-.89-.52-.46-1.15-.84-1.84-.94-.63-.09-1.26.05-1.9.09s-1.33-.07-1.76-.54c-1.18-1.27.2-4.03.63-5.34.53-1.64,1.39-5.33-1.52-4.94-4.52.6-9.03.96-13.13-1.51-.34-.2-.67-.43-.89-.76-1.88-2.86,7.73-2.02,8.6-3.26,1.57-2.23,2.35-5.14,4.76-4.92,1.57.14,3.82,3.47,5.12,1,.56-1.06.94-2.18,1.26-3.33"/>
      </g>
    </g>
  </g>
</svg>